<svg id="Group_782" data-name="Group 782" xmlns="http://www.w3.org/2000/svg" xmlns:xlink="http://www.w3.org/1999/xlink" width="120.477" height="87.6" viewBox="0 0 120.477 87.6">
  <defs>
    <clipPath id="clip-path">
      <rect id="Rectangle_885" data-name="Rectangle 885" width="120.477" height="87.6" fill="#ffda3d"/>
    </clipPath>
  </defs>
  <g id="Group_781" data-name="Group 781" clip-path="url(#clip-path)">
    <path id="Path_1483" data-name="Path 1483" d="M89.662,90.355a3.4,3.4,0,1,0,0,6.8,3.4,3.4,0,1,0,0-6.8" transform="translate(-49.489 -51.89)" fill="#ffda3d"/>
    <path id="Path_1484" data-name="Path 1484" d="M82.206,0H38.27a38.27,38.27,0,1,0,0,76.54H82.206a38.27,38.27,0,0,0,0-76.54m-51.6,48.479H25.779V33.309c-.983,1.043-2.295,1.4-4.411,1.4V30.239c2.414,0,3.9-.924,4.65-2.622h4.59Zm9.625.417c-4.918,0-8.375-3.517-8.375-9.626a17.428,17.428,0,0,1,1.222-6.855A7.976,7.976,0,0,1,40.59,27.2c4.351,0,6.736,2.175,6.736,5.394a4.464,4.464,0,0,1-.358,1.7l-4.321-1.014a2.119,2.119,0,0,0,.208-.954c0-.775-.656-1.49-2.205-1.49-2.295,0-3.994,2.026-4.292,5.633a6.823,6.823,0,0,1,4.5-1.639c4.351,0,7.3,2.891,7.3,6.944S44.792,48.9,40.232,48.9m31.947-.417H67.471V37.064c-.179.536-1.014,3.129-1.014,3.129L62.97,48.479H58.619l-3.487-8.285S54.3,37.6,54.119,37.064V48.479H49.41V27.617h5.215l6.169,15.229,6.169-15.229H72.18Zm24.853,0H92.323V37.064c-.179.536-1.013,3.129-1.013,3.129l-3.487,8.285H83.472l-3.487-8.285s-.834-2.593-1.013-3.129V48.479H74.263V27.617h5.216l6.169,15.229,6.169-15.229h5.215Z" fill="#ffda3d"/>
    <path id="Path_1485" data-name="Path 1485" d="M122.144,195.254H120.08v-2.048h-1.238v5.35h1.238V196.4h2.063v2.155h1.238v-5.35h-1.238Z" transform="translate(-68.25 -110.956)" fill="#ffda3d"/>
    <path id="Path_1486" data-name="Path 1486" d="M132.667,193.206h-2.5v5.349h1.238v-1.819h1.261c1.269,0,2.094-.589,2.094-1.765s-.825-1.765-2.094-1.765m-.031,2.507h-1.23V194.23h1.23c.634,0,.886.313.886.742s-.252.741-.886.741" transform="translate(-74.754 -110.956)" fill="#ffda3d"/>
    <path id="Path_1487" data-name="Path 1487" d="M144.048,193.206h-2.5v5.349h1.238v-1.819h1.261c1.269,0,2.094-.589,2.094-1.765s-.825-1.765-2.094-1.765m-.031,2.507h-1.23V194.23h1.23c.634,0,.886.313.886.742s-.252.741-.886.741" transform="translate(-81.29 -110.956)" fill="#ffda3d"/>
    <path id="Path_1488" data-name="Path 1488" d="M156.232,195.254h-2.063v-2.048H152.93v5.35h1.238V196.4h2.063v2.155h1.238v-5.35h-1.238Z" transform="translate(-87.826 -110.956)" fill="#ffda3d"/>
  </g>
</svg>
