<svg xmlns="http://www.w3.org/2000/svg" xmlns:xlink="http://www.w3.org/1999/xlink" width="120.477" height="87.6" viewBox="0 0 120.477 87.6">
  <defs>
    <clipPath id="clip-path">
      <rect id="Rectangle_1026" data-name="Rectangle 1026" width="120.477" height="87.6" fill="#ffda3d"/>
    </clipPath>
  </defs>
  <g id="Group_898" data-name="Group 898" clip-path="url(#clip-path)">
    <path id="Path_1993" data-name="Path 1993" d="M82.206,0H38.27a38.27,38.27,0,1,0,0,76.54H82.206a38.27,38.27,0,0,0,0-76.54M26.331,48.9c-5.275,0-7.63-3.04-7.63-6.587a5.74,5.74,0,0,1,.328-1.937l4.441,1.1a2.669,2.669,0,0,0-.12.865c0,1.7,1.222,2.742,3.1,2.742a2.566,2.566,0,0,0,2.891-2.831c0-2.235-1.908-3.308-4.917-3.308V35.723c2.682,0,4.232-.983,4.232-2.742,0-1.281-.865-2.146-2.474-2.146a2.152,2.152,0,0,0-2.414,2.056,2.447,2.447,0,0,0,.179.954l-4.411.984a4.472,4.472,0,0,1-.3-1.639c0-3.04,2.325-5.99,6.974-5.99,4.739,0,6.974,2.354,6.974,5.186A4.868,4.868,0,0,1,30.265,37a5.386,5.386,0,0,1,3.9,5.246c0,4.023-3.129,6.646-7.838,6.646m16.36,0c-5.156,0-7.779-3.01-7.779-6.407a4.472,4.472,0,0,1,.3-1.639l4.53,1.073a2.4,2.4,0,0,0-.089.685c0,1.7,1.4,2.3,3.129,2.3,2.086,0,3.427-1.252,3.427-3.576a3.186,3.186,0,0,0-3.427-3.457,4.59,4.59,0,0,0-3.994,2.146l-3.666-.894.983-11.5h13.5v4.172H39.5l-.447,3.874a7.337,7.337,0,0,1,4.53-1.43c4.619,0,7.242,2.831,7.242,7.093,0,4.381-3.189,7.57-8.136,7.57m32.245-.417H70.227V37.064c-.179.536-1.013,3.129-1.013,3.129l-3.487,8.285H61.376l-3.487-8.285s-.834-2.593-1.013-3.129V48.479H52.166V27.617h5.216l6.169,15.229L69.72,27.617h5.216Zm24.853,0H95.08V37.064c-.179.536-1.013,3.129-1.013,3.129L90.58,48.479H86.228l-3.487-8.285s-.834-2.593-1.013-3.129V48.479H77.019V27.617h5.215L88.4,42.846l6.169-15.229h5.215Z" fill="#ffda3d"/>
    <path id="Path_1994" data-name="Path 1994" d="M122.144,195.254H120.08v-2.048h-1.238v5.35h1.238V196.4h2.063v2.155h1.238v-5.35h-1.238Z" transform="translate(-68.25 -110.956)" fill="#ffda3d"/>
    <path id="Path_1995" data-name="Path 1995" d="M132.667,193.206h-2.5v5.35h1.238v-1.819h1.261c1.269,0,2.094-.589,2.094-1.765s-.825-1.765-2.094-1.765m-.031,2.507h-1.23V194.23h1.23c.634,0,.886.313.886.742s-.252.741-.886.741" transform="translate(-74.754 -110.956)" fill="#ffda3d"/>
    <path id="Path_1996" data-name="Path 1996" d="M144.048,193.206h-2.5v5.35h1.238v-1.819h1.261c1.269,0,2.094-.589,2.094-1.765s-.825-1.765-2.094-1.765m-.031,2.507h-1.23V194.23h1.23c.634,0,.886.313.886.742s-.252.741-.886.741" transform="translate(-81.29 -110.956)" fill="#ffda3d"/>
    <path id="Path_1997" data-name="Path 1997" d="M156.232,195.254h-2.063v-2.048H152.93v5.35h1.238V196.4h2.063v2.155h1.238v-5.35h-1.238Z" transform="translate(-87.826 -110.956)" fill="#ffda3d"/>
  </g>
</svg>
