<svg xmlns="http://www.w3.org/2000/svg" xmlns:xlink="http://www.w3.org/1999/xlink" width="120.477" height="87.6" viewBox="0 0 120.477 87.6">
  <defs>
    <clipPath id="clip-path">
      <rect id="Rectangle_1025" data-name="Rectangle 1025" width="120.477" height="87.6" fill="#ffda3d"/>
    </clipPath>
  </defs>
  <g id="Group_897" data-name="Group 897" clip-path="url(#clip-path)">
    <path id="Path_1987" data-name="Path 1987" d="M91.423,74.393c-2.861,0-4.828,2.384-4.828,6.378s1.967,6.378,4.828,6.378,4.828-2.384,4.828-6.378-1.967-6.378-4.828-6.378" transform="translate(-49.73 -42.723)" fill="#ffda3d"/>
    <path id="Path_1988" data-name="Path 1988" d="M82.206,0H38.27a38.27,38.27,0,1,0,0,76.54H82.206a38.27,38.27,0,1,0,0-76.54M20.117,48.479l7.51-16.69H17.822V27.617H32.486V31.61l-7.51,16.868Zm21.576.417c-5.692,0-9.656-4.2-9.656-10.848S36,27.2,41.693,27.2s9.656,4.292,9.656,10.848S47.386,48.9,41.693,48.9m33.765-.417H70.749V37.064c-.179.536-1.013,3.129-1.013,3.129l-3.487,8.285H61.9L58.41,40.194S57.576,37.6,57.4,37.064V48.479H52.688V27.617H57.9l6.169,15.229,6.169-15.229h5.216Zm24.853,0H95.6V37.064c-.179.536-1.013,3.129-1.013,3.129L91.1,48.479H86.75l-3.487-8.285s-.834-2.593-1.013-3.129V48.479H77.541V27.617h5.215l6.169,15.229L95.1,27.617h5.215Z" fill="#ffda3d"/>
    <path id="Path_1989" data-name="Path 1989" d="M122.144,195.254H120.08v-2.048h-1.238v5.35h1.238V196.4h2.063v2.155h1.238v-5.35h-1.238Z" transform="translate(-68.25 -110.956)" fill="#ffda3d"/>
    <path id="Path_1990" data-name="Path 1990" d="M132.667,193.206h-2.5v5.35h1.238v-1.819h1.261c1.269,0,2.094-.589,2.094-1.765s-.825-1.765-2.094-1.765m-.031,2.507h-1.23V194.23h1.23c.634,0,.886.313.886.742s-.252.741-.886.741" transform="translate(-74.754 -110.956)" fill="#ffda3d"/>
    <path id="Path_1991" data-name="Path 1991" d="M144.048,193.206h-2.5v5.35h1.238v-1.819h1.261c1.269,0,2.094-.589,2.094-1.765s-.825-1.765-2.094-1.765m-.031,2.507h-1.23V194.23h1.23c.634,0,.886.313.886.742s-.252.741-.886.741" transform="translate(-81.29 -110.956)" fill="#ffda3d"/>
    <path id="Path_1992" data-name="Path 1992" d="M156.232,195.254h-2.063v-2.048H152.93v5.35h1.238V196.4h2.063v2.155h1.238v-5.35h-1.238Z" transform="translate(-87.826 -110.956)" fill="#ffda3d"/>
  </g>
</svg>
