<svg id="Group_396" data-name="Group 396" xmlns="http://www.w3.org/2000/svg" xmlns:xlink="http://www.w3.org/1999/xlink" width="371" height="235.7" viewBox="0 0 371 235.7">
  <defs>
    <clipPath id="clip-path">
      <rect id="Rectangle_454" data-name="Rectangle 454" width="371" height="235.7" fill="none"/>
    </clipPath>
  </defs>
  <g id="Group_396-2" data-name="Group 396" clip-path="url(#clip-path)">
    <path id="Path_604" data-name="Path 604" d="M253.149,235.7h-135.3a117.85,117.85,0,1,1,0-235.7h135.3a117.85,117.85,0,1,1,0,235.7M117.851,7.865a109.984,109.984,0,1,0,0,219.969h135.3a109.984,109.984,0,1,0,0-219.969Z" transform="translate(0 0)" fill="#f2acd7"/>
    <path id="Path_605" data-name="Path 605" d="M218.3,235.7H138.91a117.85,117.85,0,0,1,0-235.7H218.3a117.85,117.85,0,1,1,0,235.7M138.91,7.865a109.984,109.984,0,0,0,0,219.969H218.3a109.984,109.984,0,1,0,0-219.969Z" transform="translate(6.549 0)" fill="#f2acd7"/>
    <path id="Path_606" data-name="Path 606" d="M232.189,55.009c-2.942.008-5.885-.018-8.824.049a17.582,17.582,0,0,0-10.281,3.6,39.139,39.139,0,0,0-3.048,2.787,17.661,17.661,0,0,0-13.584-6.405c-3-.085-6.007-.016-9.05-.016v40h8.541V63.534c.608.056,1.1.087,1.589.148A9.247,9.247,0,0,1,206.05,73c.092,6.915.034,13.834.041,20.751V95h7.926a2.661,2.661,0,0,0,.067-.4c.007-4.086,0-8.172.017-12.257.016-3.4-.088-6.817.126-10.21.372-5.971,5.864-8.664,10.069-8.474V94.993h8.554V55.112a4.559,4.559,0,0,0-.661-.1" transform="translate(58.274 17.101)" fill="#f2acd7"/>
    <path id="Path_607" data-name="Path 607" d="M82.116,93.7A10.907,10.907,0,0,0,87.5,78.733a10.444,10.444,0,0,0-3.621-4.068,24.728,24.728,0,0,0,2.668-3.92,11.183,11.183,0,0,0-8.195-15.162c-5.9-1.143-11.923-.514-17.954-.427V95.111c.523,0,.95,0,1.376,0,5.13-.022,10.263.059,15.387-.125a13.929,13.929,0,0,0,4.95-1.283M68.983,63.237a60.77,60.77,0,0,1,6.567.052,3.606,3.606,0,0,1,3.2,4.127,3.716,3.716,0,0,1-3.634,3.553c-1.994.114-4,.025-6.129.025Zm-.021,23.734V79.236c.1-.084.148-.17.2-.17,2.436.018,4.881-.088,7.3.1a3.9,3.9,0,0,1-.338,7.781c-2.353.089-4.713.02-7.164.02" transform="translate(18.783 17.073)" fill="#f2acd7"/>
    <path id="Path_608" data-name="Path 608" d="M119.145,94.85a21.177,21.177,0,0,0,11.07-3.681,19.579,19.579,0,0,0,.069-32.3,21.922,21.922,0,0,0-12.018-3.783c-3.54-.08-7.082-.017-10.679-.017V94.882c3.9,0,7.735.115,11.557-.031m-2.967-31.407c4.715-.507,9.643,1.408,12.045,5.174a11.255,11.255,0,0,1,.26,12.484c-2.462,4.2-7.828,6.038-12.3,5.481Z" transform="translate(33.455 17.116)" fill="#f2acd7"/>
    <path id="Path_609" data-name="Path 609" d="M83.823,95.034h8.523V88.274H103.53v6.787h8.507v-40.1c-1.786.122-3.5.166-5.2.368a27.338,27.338,0,0,0-13.1,4.73c-6.321,4.569-9.217,11.058-9.751,18.588-.378,5.316-.2,10.671-.261,16.008a1.445,1.445,0,0,0,.1.376m19.612-30.01v14.8H92.676c-.081-6.357,3.663-13.306,10.759-14.8" transform="translate(26.035 17.091)" fill="#f2acd7"/>
    <path id="Path_610" data-name="Path 610" d="M148.811,78.957H160.2V70.929H148.828V63.278h16.438V55.049H140.255V95.032h8.557Z" transform="translate(43.613 17.118)" fill="#f2acd7"/>
    <path id="Path_611" data-name="Path 611" d="M190.211,86.662H178.152V55.045h-8.484V94.982h20.544Z" transform="translate(52.759 17.117)" fill="#f2acd7"/>
    <rect id="Rectangle_453" data-name="Rectangle 453" width="8.454" height="39.963" transform="translate(211.441 72.167)" fill="#f2acd7"/>
    <path id="Path_612" data-name="Path 612" d="M157.566,91.538a20.943,20.943,0,1,0,21,20.809,20.617,20.617,0,0,0-21-20.809m.092,33.5a12.559,12.559,0,0,1,0-25.11,12.569,12.569,0,0,1,12.29,12.636,12.427,12.427,0,0,1-12.292,12.474" transform="translate(42.541 28.464)" fill="#f2acd7"/>
    <path id="Path_613" data-name="Path 613" d="M115.286,108.1H101.211V92.265H92.723V132.23h8.593V116.295h13.989v15.929h8.524v-39.9h-8.543Z" transform="translate(28.833 28.69)" fill="#f2acd7"/>
    <path id="Path_614" data-name="Path 614" d="M192,117.159a6.288,6.288,0,0,1,.583-.517c5.35-3.6,6.234-10.615,3.987-15.758-2.231-5.1-6.462-7.756-11.814-8.275-4.552-.443-9.164-.265-13.749-.355a1.354,1.354,0,0,0-.359.114v39.866h8.541v-11.07a8.308,8.308,0,0,1,9.982,6.728c.253,1.425.245,2.895.357,4.33h8.461c.284-5.971-.792-11.315-5.987-15.064m-2.972-9.591a5.186,5.186,0,0,1-3.466,4.512,14.628,14.628,0,0,1-6.289.877V100.341c2.693-.087,5.277.076,7.531,1.649,1.939,1.352,2.424,3.348,2.223,5.578" transform="translate(53.063 28.687)" fill="#f2acd7"/>
    <path id="Path_615" data-name="Path 615" d="M127.048,116.2h11.417v-8.055H127.092v-7.655h16.467V92.3H118.476v39.919h25.075v-8.315h-16.5Z" transform="translate(36.841 28.702)" fill="#f2acd7"/>
    <path id="Path_616" data-name="Path 616" d="M69.383,100.55h9.933v31.683h8.6V100.525h9.917V92.294H69.383Z" transform="translate(21.575 28.699)" fill="#f2acd7"/>
    <path id="Path_617" data-name="Path 617" d="M212.1,92.28a1.645,1.645,0,0,0-1.105.755c-1.881,3.09-3.707,6.213-5.552,9.325-.191.322-.4.636-.675,1.07-2.087-3.507-4.1-6.846-6.059-10.218a1.66,1.66,0,0,0-1.683-.99c-2.33.063-4.663.02-6.994.025-.33,0-.661.046-1.105.079.261.488.435.834.628,1.171,3.4,5.936,6.784,11.881,10.218,17.8a5.322,5.322,0,0,1,.739,2.836c-.035,5.662-.017,11.325-.017,16.987v1.154H209.1c0-6.331-.013-12.53.021-18.73a3.876,3.876,0,0,1,.473-1.81c3.435-6.08,6.909-12.138,10.371-18.2.2-.361.395-.729.637-1.177a5.282,5.282,0,0,0-.648-.1c-2.619-.005-5.239-.037-7.855.029" transform="translate(58.747 28.677)" fill="#f2acd7"/>
  </g>
</svg>
