<svg id="Group_818" data-name="Group 818" xmlns="http://www.w3.org/2000/svg" xmlns:xlink="http://www.w3.org/1999/xlink" width="246" height="166.32" viewBox="0 0 246 166.32">
  <defs>
    <clipPath id="clip-path">
      <rect id="Rectangle_918" data-name="Rectangle 918" width="246" height="166.32" fill="#45cdff"/>
    </clipPath>
  </defs>
  <g id="Group_818-2" data-name="Group 818" clip-path="url(#clip-path)">
    <path id="Path_1813" data-name="Path 1813" d="M173.067,145.866H72.932A72.933,72.933,0,0,1,72.932,0H173.067a72.933,72.933,0,1,1,0,145.866M72.932,6.419a66.514,66.514,0,0,0,0,133.028H173.067a66.514,66.514,0,1,0,0-133.028Z" fill="#45cdff"/>
    <path id="Path_1814" data-name="Path 1814" d="M156.379,145.866H100.53A72.933,72.933,0,0,1,100.53,0h55.848a72.933,72.933,0,0,1,0,145.866M100.53,6.419a66.514,66.514,0,0,0,0,133.028h55.848a66.514,66.514,0,0,0,0-133.028Z" transform="translate(-5.454)" fill="#45cdff"/>
    <path id="Path_1815" data-name="Path 1815" d="M131.8,195.216h2.241v3.708h3.736v-3.708h2.241V204.9h-2.241V201h-3.736v3.9H131.8Z" transform="translate(-26.048 -38.58)" fill="#45cdff"/>
    <path id="Path_1816" data-name="Path 1816" d="M142.683,195.217h4.524c2.3,0,3.791,1.065,3.791,3.2s-1.495,3.2-3.791,3.2h-2.283V204.9h-2.241Zm2.241,4.537h2.227c1.148,0,1.6-.567,1.6-1.342s-.457-1.342-1.6-1.342h-2.227Z" transform="translate(-28.198 -38.58)" fill="#45cdff"/>
    <path id="Path_1817" data-name="Path 1817" d="M153.614,195.217h4.524c2.3,0,3.79,1.065,3.79,3.2s-1.494,3.2-3.79,3.2h-2.283V204.9h-2.241Zm2.241,4.537h2.227c1.148,0,1.6-.567,1.6-1.342s-.457-1.342-1.6-1.342h-2.227Z" transform="translate(-30.358 -38.58)" fill="#45cdff"/>
    <path id="Path_1818" data-name="Path 1818" d="M164.545,195.216h2.241v3.708h3.736v-3.708h2.241V204.9h-2.241V201h-3.736v3.9h-2.241Z" transform="translate(-32.519 -38.58)" fill="#45cdff"/>
    <path id="Path_1819" data-name="Path 1819" d="M122.039,60.5a10.736,10.736,0,0,1-.428,14.594,9.816,9.816,0,0,1-7.263,3.036H102.52q-3.149,0-3.689-1.709a7.526,7.526,0,0,1-.27-2.339V49.119a13,13,0,0,1,.067-1.574,3.617,3.617,0,0,1,.427-1.169q.629-1.214,3.509-1.215H113.9a9.255,9.255,0,0,1,6.927,2.879,9.572,9.572,0,0,1,2.923,7.016,9.365,9.365,0,0,1-1.709,5.442m-5.307,6.612a4.821,4.821,0,0,0-.247-1.709,1.59,1.59,0,0,0-.832-.9,7.01,7.01,0,0,0-2.519-.359,3.911,3.911,0,0,1-2.429-.63,3.184,3.184,0,0,1-.81-2.586,3.13,3.13,0,0,1,.832-2.586,4.672,4.672,0,0,1,2.766-.63q1.8,0,2.159-.944a6.846,6.846,0,0,0,.135-1.619,1.691,1.691,0,0,0-.742-1.574,4.385,4.385,0,0,0-2.227-.449h-6.3V70.168H113.9q2.834,0,2.834-3.059" transform="translate(-19.479 -8.925)" fill="#45cdff"/>
    <path id="Path_1820" data-name="Path 1820" d="M157.307,45.726q2.2,1.53,2.2,2.968a4.856,4.856,0,0,1-1.035,2.384L148.762,65.6v8.589a13.088,13.088,0,0,1-.067,1.553,3.6,3.6,0,0,1-.428,1.192,1.976,1.976,0,0,1-1.214.944,9.891,9.891,0,0,1-4.587,0,1.954,1.954,0,0,1-1.215-.967,3.809,3.809,0,0,1-.427-1.215,13.6,13.6,0,0,1-.067-1.6V65.6l-9.714-14.527a4.856,4.856,0,0,1-1.035-2.384q0-1.439,1.979-2.766A6.424,6.424,0,0,1,134.82,44.6a2.254,2.254,0,0,1,1.35.359,6.009,6.009,0,0,1,1.618,1.844l6.972,11.154,6.971-11.154a6.23,6.23,0,0,1,1.484-1.776,2.547,2.547,0,0,1,1.462-.427,6.015,6.015,0,0,1,2.631,1.124" transform="translate(-25.693 -8.815)" fill="#45cdff"/>
    <path id="Path_1821" data-name="Path 1821" d="M182.923,44.714a16.587,16.587,0,0,1,16.461,16.752,17.161,17.161,0,0,1-4.678,12.144,15.128,15.128,0,0,1-11.513,5.015,15.579,15.579,0,0,1-11.626-4.947,16.351,16.351,0,0,1-4.79-11.783,18.1,18.1,0,0,1,1.349-6.993,16.22,16.22,0,0,1,3.6-5.466,16.846,16.846,0,0,1,5.172-3.462,15.107,15.107,0,0,1,6.027-1.259m-8.185,16.954a8.622,8.622,0,0,0,2.586,6.5,7.987,7.987,0,0,0,11.536.069,8.561,8.561,0,0,0,2.563-6.521,8.669,8.669,0,0,0-2.585-6.567,8.171,8.171,0,0,0-5.779-2.474,8.056,8.056,0,0,0-5.756,2.5,8.669,8.669,0,0,0-2.564,6.5" transform="translate(-32.96 -8.837)" fill="#45cdff"/>
    <path id="Path_1822" data-name="Path 1822" d="M105.336,108.143a10.736,10.736,0,0,1-.428,14.594,9.816,9.816,0,0,1-7.263,3.036H85.817q-3.148,0-3.688-1.709a7.526,7.526,0,0,1-.27-2.339V96.764a13.006,13.006,0,0,1,.067-1.574,3.617,3.617,0,0,1,.427-1.169q.629-1.214,3.509-1.215H97.195a9.255,9.255,0,0,1,6.927,2.879,9.572,9.572,0,0,1,2.923,7.016,9.365,9.365,0,0,1-1.709,5.442m-5.307,6.612a4.821,4.821,0,0,0-.247-1.709,1.59,1.59,0,0,0-.832-.9,7.01,7.01,0,0,0-2.519-.359,3.911,3.911,0,0,1-2.429-.63,3.185,3.185,0,0,1-.81-2.586,3.13,3.13,0,0,1,.832-2.586,4.672,4.672,0,0,1,2.766-.63q1.8,0,2.159-.944a6.846,6.846,0,0,0,.135-1.619,1.691,1.691,0,0,0-.742-1.574,4.384,4.384,0,0,0-2.227-.449h-6.3v17.046h7.375q2.834,0,2.834-3.059" transform="translate(-16.178 -18.341)" fill="#45cdff"/>
    <path id="Path_1823" data-name="Path 1823" d="M134.573,95.2l12.143,25.1a5.869,5.869,0,0,1,.765,2.293q0,1.62-2.609,2.924a5.9,5.9,0,0,1-2.406.764,2.4,2.4,0,0,1-1.439-.4,2.669,2.669,0,0,1-.81-.855q-.248-.449-.7-1.349l-2.339-4.858H124.724l-2.339,4.858q-.45.9-.7,1.3a3.215,3.215,0,0,1-.81.832,2.31,2.31,0,0,1-1.439.427,5.9,5.9,0,0,1-2.406-.765q-2.609-1.258-2.609-2.878a5.856,5.856,0,0,1,.765-2.293l12.143-25.142a3.926,3.926,0,0,1,1.507-1.663,3.977,3.977,0,0,1,2.136-.631,3.809,3.809,0,0,1,3.6,2.339m-3.643,10.794-2.968,6.161h5.982Z" transform="translate(-22.614 -18.352)" fill="#45cdff"/>
    <path id="Path_1824" data-name="Path 1824" d="M179.941,108.143a10.737,10.737,0,0,1-.428,14.594,9.816,9.816,0,0,1-7.263,3.036H160.422q-3.148,0-3.689-1.709a7.526,7.526,0,0,1-.27-2.339V96.764a13,13,0,0,1,.067-1.574,3.617,3.617,0,0,1,.427-1.169q.629-1.214,3.509-1.215H171.8a9.256,9.256,0,0,1,6.927,2.879,9.572,9.572,0,0,1,2.923,7.016,9.365,9.365,0,0,1-1.709,5.442m-5.307,6.612a4.821,4.821,0,0,0-.247-1.709,1.59,1.59,0,0,0-.832-.9,7.01,7.01,0,0,0-2.519-.359,3.911,3.911,0,0,1-2.429-.63,3.185,3.185,0,0,1-.81-2.586,3.13,3.13,0,0,1,.832-2.586,4.672,4.672,0,0,1,2.766-.63q1.8,0,2.159-.944a6.847,6.847,0,0,0,.135-1.619,1.691,1.691,0,0,0-.742-1.574,4.385,4.385,0,0,0-2.227-.449h-6.3v17.046H171.8q2.834,0,2.834-3.059" transform="translate(-30.922 -18.341)" fill="#45cdff"/>
    <path id="Path_1825" data-name="Path 1825" d="M215.208,93.37q2.2,1.53,2.2,2.968a4.853,4.853,0,0,1-1.034,2.384l-9.714,14.527v8.59a13.08,13.08,0,0,1-.067,1.552,3.607,3.607,0,0,1-.428,1.192,1.973,1.973,0,0,1-1.214.944,9.888,9.888,0,0,1-4.586,0,1.954,1.954,0,0,1-1.216-.967,3.81,3.81,0,0,1-.427-1.215,13.6,13.6,0,0,1-.067-1.6v-8.5l-9.714-14.527a4.864,4.864,0,0,1-1.035-2.384q0-1.439,1.979-2.766a6.432,6.432,0,0,1,2.833-1.326,2.257,2.257,0,0,1,1.35.359,6.019,6.019,0,0,1,1.618,1.844L202.66,105.6l6.971-11.154a6.243,6.243,0,0,1,1.484-1.776,2.549,2.549,0,0,1,1.462-.427,6.011,6.011,0,0,1,2.631,1.124" transform="translate(-37.136 -18.23)" fill="#45cdff"/>
  </g>
</svg>
