<svg id="Group_822" data-name="Group 822" xmlns="http://www.w3.org/2000/svg" xmlns:xlink="http://www.w3.org/1999/xlink" width="246" height="166.32" viewBox="0 0 246 166.32">
  <defs>
    <clipPath id="clip-path">
      <rect id="Rectangle_921" data-name="Rectangle 921" width="246" height="166.32" fill="#fe9ba4"/>
    </clipPath>
  </defs>
  <g id="Group_822-2" data-name="Group 822" clip-path="url(#clip-path)">
    <path id="Path_1865" data-name="Path 1865" d="M173.067,145.866H72.932A72.933,72.933,0,0,1,72.932,0H173.067a72.933,72.933,0,1,1,0,145.866M72.932,6.419a66.514,66.514,0,0,0,0,133.028H173.067a66.514,66.514,0,1,0,0-133.028Z" fill="#fe9ba4"/>
    <path id="Path_1866" data-name="Path 1866" d="M156.379,145.866H100.53A72.933,72.933,0,0,1,100.53,0h55.848a72.933,72.933,0,0,1,0,145.866M100.53,6.419a66.514,66.514,0,0,0,0,133.028h55.848a66.514,66.514,0,0,0,0-133.028Z" transform="translate(-5.454)" fill="#fe9ba4"/>
    <path id="Path_1867" data-name="Path 1867" d="M131.8,195.216h2.241v3.708h3.736v-3.708h2.241V204.9h-2.241V201h-3.736v3.9H131.8Z" transform="translate(-26.048 -38.58)" fill="#fe9ba4"/>
    <path id="Path_1868" data-name="Path 1868" d="M142.683,195.217h4.524c2.3,0,3.791,1.065,3.791,3.2s-1.495,3.2-3.791,3.2h-2.283V204.9h-2.241Zm2.241,4.537h2.227c1.148,0,1.6-.567,1.6-1.342s-.457-1.342-1.6-1.342h-2.227Z" transform="translate(-28.198 -38.58)" fill="#fe9ba4"/>
    <path id="Path_1869" data-name="Path 1869" d="M153.614,195.217h4.524c2.3,0,3.79,1.065,3.79,3.2s-1.494,3.2-3.79,3.2h-2.283V204.9h-2.241Zm2.241,4.537h2.227c1.148,0,1.6-.567,1.6-1.342s-.457-1.342-1.6-1.342h-2.227Z" transform="translate(-30.358 -38.58)" fill="#fe9ba4"/>
    <path id="Path_1870" data-name="Path 1870" d="M164.545,195.216h2.241v3.708h3.736v-3.708h2.241V204.9h-2.241V201h-3.736v3.9h-2.241Z" transform="translate(-32.519 -38.58)" fill="#fe9ba4"/>
    <path id="Path_1871" data-name="Path 1871" d="M167.669,77.173c-.395.288-.866.584-.627,1.181.225.565.777.453,1.232.456,2.078.012,4.155.008,6.233,0a3.06,3.06,0,0,0,.8-.082.655.655,0,0,0,.386-1.038,1.342,1.342,0,0,0-.381-.4,2.733,2.733,0,0,1-1.213-2.563c.022-2.988.057-5.977-.016-8.963a5.344,5.344,0,0,1,1.028-3.254,3.543,3.543,0,0,1,3.142-1.63,2.791,2.791,0,0,1,2.827,3.057c.056,3.7.03,7.393.054,11.09a2.577,2.577,0,0,1-1.224,2.3.851.851,0,0,0-.432.988c.126.455.528.481.9.483q3.471.012,6.941,0c.372,0,.768-.027.9-.489a.85.85,0,0,0-.42-1,2.749,2.749,0,0,1-1.248-2.595c.026-3.207.01-6.415.01-9.622a4.758,4.758,0,0,1,2.619-3.926c1.689-.673,3.563-.246,4.167,1.68a4.332,4.332,0,0,1,.2,1.242c.021,3.562,0,7.124.038,10.686a2.759,2.759,0,0,1-1.265,2.586.8.8,0,0,0-.385.955c.124.42.5.476.858.477q3.5.011,6.992,0c.38,0,.761-.052.892-.5a.845.845,0,0,0-.442-.985A2.727,2.727,0,0,1,199,74.76c.028-3.022.013-6.043.006-9.065a15.633,15.633,0,0,0-.073-1.668,5.835,5.835,0,0,0-3.539-5.1,7.73,7.73,0,0,0-7.065.437,23.062,23.062,0,0,0-2.574,1.9c-1.9-3.425-8.085-4.213-11.649-.554,0-.484,0-.916,0-1.346,0-.372.02-.788-.387-.972a1,1,0,0,0-1.125.246,10.338,10.338,0,0,1-4.629,2.387,1.274,1.274,0,0,0-.733.587c-.189.384.1.711.415.935a2.512,2.512,0,0,1,1.037,2.2q.019,5.216,0,10.432a2.372,2.372,0,0,1-1.014,2" transform="translate(-32.999 -11.516)" fill="#fe9ba4"/>
    <path id="Path_1872" data-name="Path 1872" d="M114.487,77.184a.87.87,0,0,0-.462,1.066c.176.51.6.527,1.033.527q3.4,0,6.79,0c.424,0,.847-.039,1-.5a.908.908,0,0,0-.433-1.091,2.722,2.722,0,0,1-1.219-2.552c.034-3.089.012-6.178.012-9.268a4.511,4.511,0,0,1,3.8-4.482,3.045,3.045,0,0,1,3.836,3.158c.034,3.612.006,7.225.035,10.837a2.545,2.545,0,0,1-1.2,2.3.9.9,0,0,0-.45,1.079c.154.473.566.518.99.518q3.421,0,6.84,0c.42,0,.834-.032.993-.511a.9.9,0,0,0-.443-1.079A2.788,2.788,0,0,1,134.4,74.58c.039-3.19.022-6.381.01-9.572a6.687,6.687,0,0,0-1.606-4.717c-1.843-2.012-4.237-2.268-6.748-2.023a8.015,8.015,0,0,0-4.737,2.176l-.146-.043c0-.483.039-.97-.009-1.449-.071-.707-.527-.959-1.182-.673a2.362,2.362,0,0,0-.62.427,8.229,8.229,0,0,1-2.894,1.713c-.477.164-.966.29-1.449.435-.38.114-.757.243-.838.7a.937.937,0,0,0,.462.946,2.564,2.564,0,0,1,1.032,2.244c-.006,3.309-.022,6.618.011,9.926a2.712,2.712,0,0,1-1.2,2.512" transform="translate(-22.524 -11.495)" fill="#fe9ba4"/>
    <path id="Path_1873" data-name="Path 1873" d="M231.452,75.363a2.682,2.682,0,0,1-1.109-2.415q.007-6.609,0-13.218a3.548,3.548,0,0,0-.021-.607c-.069-.4-.312-.691-.728-.591a4.093,4.093,0,0,0-1.121.51c-.761.463-1.5.961-2.245,1.447-.271.177-.461.107-.692-.117a7.375,7.375,0,0,0-3-1.8,9.8,9.8,0,0,0-4.253-.254,9.624,9.624,0,0,0-5.26,2.376,10.13,10.13,0,0,0-3.471,7.529c-.125,4.013,1.251,7.321,4.67,9.565a8.99,8.99,0,0,0,8.127,1,19.23,19.23,0,0,0,2.475-1.241c.014.3.018.65.047,1a.725.725,0,0,0,1.051.7,4.05,4.05,0,0,0,.607-.355c.808-.442,1.594-.936,2.436-1.3.688-.3,1.456-.412,2.161-.68a1.378,1.378,0,0,0,.7-.634.74.74,0,0,0-.373-.908m-6.8-2.941a11.289,11.289,0,0,1-.885,2.715A3.837,3.837,0,0,1,217,75.45a10.428,10.428,0,0,1-1.451-4.624c-.085-.786-.1-1.581-.146-2.372a14.964,14.964,0,0,1,.872-5.407,5.005,5.005,0,0,1,1.512-2.117,3.911,3.911,0,0,1,5.628,1.017,8.985,8.985,0,0,1,1.343,3.98,20.021,20.021,0,0,1-.108,6.494" transform="translate(-41.411 -11.501)" fill="#fe9ba4"/>
    <path id="Path_1874" data-name="Path 1874" d="M90.285,75.586c1.363-.76,2.534-1.655,2.48-3.435a.613.613,0,0,1,.017-.1c.158-1.374.319-2.746.47-4.12.039-.344-.042-.709-.421-.751a1.429,1.429,0,0,0-.905.234,2.126,2.126,0,0,0-.5.749c-.665,1.229-1.272,2.492-1.991,3.689-2.326,3.869-7.121,3.828-9.923,2.02-2.394-1.546-3.483-3.952-4.112-6.609a22.539,22.539,0,0,1-.477-6.536,16.963,16.963,0,0,1,1.191-5.712,8.081,8.081,0,0,1,1.773-2.686c2.027-1.971,4.48-2.276,7.1-1.708A7.175,7.175,0,0,1,89.522,54.1c.542.853,1.042,1.732,1.588,2.584a.8.8,0,0,0,1.016.346c.387-.148.43-.485.409-.838-.067-1.129-.221-2.259-.181-3.383a2.836,2.836,0,0,0-1.638-2.784c-.221-.123-.433-.264-.662-.37a15.928,15.928,0,0,0-11.545-.868,12.946,12.946,0,0,0-8.718,8.171,15.841,15.841,0,0,0-.323,10.613,13.371,13.371,0,0,0,4.306,6.483c2.756,2.276,5.986,3.225,10,3.273a13.816,13.816,0,0,0,6.515-1.735" transform="translate(-13.579 -9.503)" fill="#fe9ba4"/>
    <path id="Path_1875" data-name="Path 1875" d="M147.582,78.217a11.162,11.162,0,0,0,6.957.9,7.785,7.785,0,0,0,5.4-3.215c.489-.695.52-1.125.12-1.485-.371-.333-.777-.257-1.426.268A6.474,6.474,0,0,1,150.4,74.4a7.626,7.626,0,0,1-2.265-5.035h.619q5.677,0,11.354,0c.908,0,1.261-.358,1.243-1.261a12.882,12.882,0,0,0-.784-4.406,7.985,7.985,0,0,0-4.262-4.769,10.048,10.048,0,0,0-11.569,2.958,11.31,11.31,0,0,0-2.3,9.271,9.2,9.2,0,0,0,5.151,7.065m2.182-16.775a3.043,3.043,0,0,1,5.313.631,10.043,10.043,0,0,1,.741,4.54c-.014.5-.39.619-.816.619q-2.91,0-5.819,0h-1.137c.114-2.114.38-4.111,1.717-5.795" transform="translate(-28.111 -11.496)" fill="#fe9ba4"/>
    <path id="Path_1876" data-name="Path 1876" d="M101.737,77.31a.873.873,0,0,0-.453,1.021c.14.465.556.477.952.487.084,0,.168,0,.254,0q3.164,0,6.329,0a1.278,1.278,0,0,0,.5-.026c.244-.112.582-.25.65-.453a1.428,1.428,0,0,0-.169-.829c-.047-.123-.216-.205-.339-.293a2.531,2.531,0,0,1-1.1-2.253c.025-2.531.009-5.061.009-7.592,0-1.012,0-2.024,0-3.036-.007-1.72.008-3.441-.038-5.16-.024-.88-.664-1.139-1.39-.609a12.852,12.852,0,0,1-1.782,1.3c-.976.476-2.03.793-3.051,1.176-.821.309-.953.932-.262,1.454a2.61,2.61,0,0,1,1.068,2.227c0,3.441,0,6.883.019,10.324a2.573,2.573,0,0,1-1.2,2.257" transform="translate(-20.009 -11.52)" fill="#fe9ba4"/>
    <path id="Path_1877" data-name="Path 1877" d="M105.787,53.136a3.19,3.19,0,1,0-.071-6.38,3.19,3.19,0,1,0,.071,6.38" transform="translate(-20.258 -9.24)" fill="#fe9ba4"/>
    <path id="Path_1878" data-name="Path 1878" d="M208.318,119.241a2.989,2.989,0,0,1-1.16-2.7c.022-4.32.01-8.64.006-12.961a3.889,3.889,0,0,0-.057-.7c-.071-.385-.325-.633-.712-.541a3.62,3.62,0,0,0-1.039.455c-.8.491-1.58,1.02-2.371,1.528-.231.148-.4.087-.609-.112a7.477,7.477,0,0,0-3.286-1.9,9.976,9.976,0,0,0-4.009-.182,9.712,9.712,0,0,0-6.018,3.117,10.125,10.125,0,0,0-2.7,6.535c-.2,4.144,1.185,7.57,4.743,9.868a8.962,8.962,0,0,0,8.088.94,19.368,19.368,0,0,0,2.433-1.228c0,.147-.006.327,0,.507a4.091,4.091,0,0,0,.05.552.724.724,0,0,0,1.064.631,4.217,4.217,0,0,0,.562-.331c.855-.46,1.691-.965,2.578-1.354.687-.3,1.446-.436,2.16-.68a.784.784,0,0,0,.279-1.44m-7.428-.9a3.949,3.949,0,0,1-4.377,2.74,4,4,0,0,1-3.022-2.357,9.659,9.659,0,0,1-1.092-3.7,21.048,21.048,0,0,1,.18-6.494,7.443,7.443,0,0,1,1.115-2.792,3.874,3.874,0,0,1,6.543.046,9.207,9.207,0,0,1,1.356,4.182c.108.919.128,1.849.188,2.773a15.746,15.746,0,0,1-.89,5.607" transform="translate(-36.826 -20.159)" fill="#fe9ba4"/>
    <path id="Path_1879" data-name="Path 1879" d="M107.886,119.171A4.024,4.024,0,0,1,105.938,117c-.369-.94-.753-1.875-1.125-2.815q-2.3-5.8-4.594-11.606-1.955-4.935-3.908-9.868a1.022,1.022,0,0,0-1.033-.8c-.572.017-.829.395-1.014.849q-1.473,3.6-2.934,7.208-3.4,8.383-6.8,16.768a4.2,4.2,0,0,1-2.142,2.383c-.075.035-.176.069-.212.133-.146.259-.386.533-.38.8.01.379.372.547.737.55q2.559.016,5.117,0c.363,0,.73-.177.724-.558,0-.261-.27-.522-.435-.771-.04-.062-.145-.08-.22-.12a1.586,1.586,0,0,1-.922-2.352c.469-1.228.983-2.438,1.441-3.669a.634.634,0,0,1,.712-.472c1.469.015,2.938.006,4.408.006,1.486,0,2.973.007,4.459-.006a.6.6,0,0,1,.68.441c.376,1.045.79,2.077,1.2,3.108.648,1.619.554,1.971-.855,2.956-.323.226-.6.481-.5.907.117.457.514.548.921.548q4.129,0,8.26,0c.4,0,.8-.071.923-.539s-.193-.709-.561-.9m-18.605-8.68,4.043-10.213.156-.027,3.993,10.241Z" transform="translate(-16.164 -18.164)" fill="#fe9ba4"/>
    <path id="Path_1880" data-name="Path 1880" d="M123.258,94.408a3.113,3.113,0,0,1,2.654-1.959,2.49,2.49,0,0,1,2.529,1.778c.2.481.4.966.61,1.442.171.378.383.741.88.7s.654-.421.746-.834c.157-.705.3-1.414.454-2.121a1.848,1.848,0,0,0-1.267-2.357,9.278,9.278,0,0,0-3.913-.579,8.938,8.938,0,0,0-8.492,7.382c-.16.8-.225,1.621-.341,2.476h-.444c-1.4.008-1.419.021-1.553,1.412-.047.488.082.638.585.646.482.008.965,0,1.469,0v.686c0,4.373-.023,8.746.016,13.118a2.98,2.98,0,0,1-1.31,2.724,1.134,1.134,0,0,0-.341.859c.014.382.37.53.743.53q3.673.007,7.347.006a.748.748,0,0,0,.831-.52.766.766,0,0,0-.446-.922,2.773,2.773,0,0,1-1.427-2.74c.029-4.39.011-8.78.013-13.169,0-.181.018-.36.029-.572h3.291c1.195,0,1.221-.023,1.382-1.206,0-.034.01-.067.013-.1.063-.621-.051-.753-.676-.753-1.317,0-2.633,0-4.04,0,0-.525-.01-.994,0-1.464a12.191,12.191,0,0,1,.656-4.466" transform="translate(-22.749 -17.88)" fill="#fe9ba4"/>
    <path id="Path_1881" data-name="Path 1881" d="M179.7,117.958a5.585,5.585,0,0,0-.484.366,6.243,6.243,0,0,1-4.245,1.5,6.083,6.083,0,0,1-5.634-4.006,11.168,11.168,0,0,1-.385-7.572c.648-2.308,2.039-3.946,4.577-4.257a3.454,3.454,0,0,1,3.882,2c.363.756.636,1.554.956,2.331.168.408.4.764.908.742.529-.022.685-.432.794-.851.213-.812.4-1.632.611-2.445a2,2,0,0,0-.629-2.106,4.691,4.691,0,0,0-.8-.607,9.458,9.458,0,0,0-4.829-1.078c-.688.051-1.381.071-2.064.16a11.01,11.01,0,0,0-6.088,2.714,10.619,10.619,0,0,0-3.658,7.619,9.8,9.8,0,0,0,2.935,7.837,10.834,10.834,0,0,0,12.884,1.245,6.835,6.835,0,0,0,2.449-2.506.812.812,0,0,0-.1-1.068.823.823,0,0,0-1.071-.013" transform="translate(-32.132 -20.152)" fill="#fe9ba4"/>
    <path id="Path_1882" data-name="Path 1882" d="M142.568,102.085a6.655,6.655,0,0,0-3.969,2.358c0-.266,0-.531,0-.8a8.027,8.027,0,0,0-.034-.858c-.1-.753-.572-1.009-1.257-.671a4.147,4.147,0,0,0-.536.374,12.253,12.253,0,0,1-1.736,1.206,27.484,27.484,0,0,1-2.694.981c-.359.127-.775.273-.753.7a1.345,1.345,0,0,0,.431.89,2.784,2.784,0,0,1,1.046,2.349c-.01,3.274-.025,6.548.01,9.822A2.746,2.746,0,0,1,131.869,121a.866.866,0,0,0-.452,1.068c.179.513.607.518,1.037.518q3.394,0,6.788,0c.424,0,.845-.041,1-.508a.911.911,0,0,0-.438-1.09,2.718,2.718,0,0,1-1.215-2.553c.037-2.548.012-5.1.012-7.645,0-.861-.022-1.722.007-2.582a1.977,1.977,0,0,1,2.292-2.017,7.248,7.248,0,0,1,1.234.538,6.393,6.393,0,0,0,1.569.472,2.252,2.252,0,0,0,2.4-1.232,2.965,2.965,0,0,0-.32-3.05,3.18,3.18,0,0,0-3.214-.835" transform="translate(-25.961 -20.152)" fill="#fe9ba4"/>
    <path id="Path_1883" data-name="Path 1883" d="M159.724,121.1a2.72,2.72,0,0,1-1.2-2.562c.018-2.515.006-5.032.006-7.547q0-1.47,0-2.938c0-1.688.008-3.376-.014-5.065-.01-.768-.5-1.049-1.194-.718a3.473,3.473,0,0,0-.454.311,14.941,14.941,0,0,1-1.91,1.293,24.782,24.782,0,0,1-2.65.968c-.783.273-.984.915-.355,1.394a3.17,3.17,0,0,1,1.177,2.808c-.016,3.039-.034,6.079.008,9.117a3.148,3.148,0,0,1-1.37,3.1.817.817,0,0,0-.262.3.657.657,0,0,0,.331.956,2.22,2.22,0,0,0,.737.116c2.129.009,4.257.006,6.385,0a1.494,1.494,0,0,0,.552-.029c.246-.1.59-.242.655-.443.075-.233-.087-.555-.181-.826-.034-.1-.159-.174-.257-.237" transform="translate(-29.923 -20.184)" fill="#fe9ba4"/>
    <path id="Path_1884" data-name="Path 1884" d="M221.46,91.134a19.536,19.536,0,0,0-2.169-.016c0-.031,0-.063,0-.093-.807.035-1.62.029-2.422.12a1.069,1.069,0,0,0-1.017,1.171,3.992,3.992,0,0,0,.017.657q1.039,8.579,2.083,17.159c.174,1.446.051,1.441,1.734,1.422a.674.674,0,0,0,.75-.693c.283-2.441.591-4.878.887-7.317q.431-3.558.855-7.117c.154-1.286.332-2.571.441-3.861.079-.936-.23-1.327-1.157-1.431" transform="translate(-42.657 -17.989)" fill="#fe9ba4"/>
    <path id="Path_1885" data-name="Path 1885" d="M219.325,120.089a3.249,3.249,0,1,0,3.23,3.311,3.215,3.215,0,0,0-3.23-3.311" transform="translate(-42.682 -23.733)" fill="#fe9ba4"/>
    <path id="Path_1886" data-name="Path 1886" d="M152.682,93.781a3.24,3.24,0,0,0,6.478-.063,3.24,3.24,0,0,0-6.478.063" transform="translate(-30.174 -17.898)" fill="#fe9ba4"/>
  </g>
</svg>
