<svg id="Group_981" data-name="Group 981" xmlns="http://www.w3.org/2000/svg" xmlns:xlink="http://www.w3.org/1999/xlink" width="246" height="166.32" viewBox="0 0 246 166.32">
  <defs>
    <clipPath id="clip-path">
      <rect id="Rectangle_915" data-name="Rectangle 915" width="246" height="166.32" fill="#fd4ac2"/>
    </clipPath>
  </defs>
  <g id="Group_812" data-name="Group 812" clip-path="url(#clip-path)">
    <path id="Path_1757" data-name="Path 1757" d="M173.067,145.866H72.932A72.933,72.933,0,0,1,72.932,0H173.067a72.933,72.933,0,1,1,0,145.866M72.932,6.419a66.514,66.514,0,0,0,0,133.028H173.067a66.514,66.514,0,1,0,0-133.028Z" fill="#fd4ac2"/>
    <path id="Path_1758" data-name="Path 1758" d="M156.379,145.866H100.53A72.933,72.933,0,0,1,100.53,0h55.848a72.933,72.933,0,0,1,0,145.866M100.53,6.419a66.514,66.514,0,0,0,0,133.028h55.848a66.514,66.514,0,0,0,0-133.028Z" transform="translate(-5.454)" fill="#fd4ac2"/>
    <path id="Path_1759" data-name="Path 1759" d="M131.8,195.216h2.241v3.708h3.736v-3.708h2.241V204.9h-2.241V201h-3.736v3.9H131.8Z" transform="translate(-26.048 -38.58)" fill="#fd4ac2"/>
    <path id="Path_1760" data-name="Path 1760" d="M142.683,195.217h4.524c2.3,0,3.791,1.065,3.791,3.2s-1.495,3.2-3.791,3.2h-2.283V204.9h-2.241Zm2.241,4.537h2.227c1.148,0,1.6-.567,1.6-1.342s-.457-1.342-1.6-1.342h-2.227Z" transform="translate(-28.198 -38.58)" fill="#fd4ac2"/>
    <path id="Path_1761" data-name="Path 1761" d="M153.614,195.217h4.524c2.3,0,3.79,1.065,3.79,3.2s-1.494,3.2-3.79,3.2h-2.283V204.9h-2.241Zm2.241,4.537h2.227c1.148,0,1.6-.567,1.6-1.342s-.457-1.342-1.6-1.342h-2.227Z" transform="translate(-30.358 -38.58)" fill="#fd4ac2"/>
    <path id="Path_1762" data-name="Path 1762" d="M164.545,195.216h2.241v3.708h3.736v-3.708h2.241V204.9h-2.241V201h-3.736v3.9h-2.241Z" transform="translate(-32.519 -38.58)" fill="#fd4ac2"/>
    <path id="Path_1763" data-name="Path 1763" d="M81.679,72.068c-.629,1.04-1.207,2.11-1.829,3.212l1.981,1.268c.667-1.113,1.292-2.154,1.928-3.213.575.385,1.082.75,1.612,1.079a9.872,9.872,0,0,0,15.246-7.851c.012-.224-.026-.607-.148-.657-1.012-.424-2.049-.786-3.181-1.205-.043.566-.057.943-.1,1.317a9.294,9.294,0,0,1-2.2,5.516,4.469,4.469,0,0,1-7.08-.445c-.423-.593-.7-1.285-1.078-1.916a1.191,1.191,0,0,1,.075-1.35q4.031-6.922,8.022-13.868c2.33-4.033,4.659-8.067,7.018-12.153-.9-.505-1.2-.486-1.906.446a3.263,3.263,0,0,1-3.863,1.147c-.5-.14-.982-.335-1.482-.467A13.88,13.88,0,0,0,92,42.291c-4.358-.244-7.7,1.68-10.253,5.07A19.589,19.589,0,0,0,78.065,58.6c-.2,4.533.692,8.781,3.542,12.459a.755.755,0,0,1,.071,1.006m5.2-23.158a9.39,9.39,0,0,1,2.06-2.986,4.182,4.182,0,0,1,2.243-1.016A2.559,2.559,0,0,1,94.25,47.33a7.069,7.069,0,0,1-1.037,4.541c-2.37,4.261-4.823,8.477-7.247,12.708a2.457,2.457,0,0,1-.242.3c-.756-5.438-.9-10.81,1.155-15.97" transform="translate(-15.423 -8.196)" fill="#fd4ac2"/>
    <path id="Path_1764" data-name="Path 1764" d="M180.136,71.624c.018-6.154.007-12.308.007-18.462V52.143c-.329.056-.543.071-.744.13-1.307.384-2.6.813-3.922,1.149-.636.162-.785.472-.779,1.086.027,3.567.014,7.135.014,10.7,0,1.961.006,3.921-.006,5.881a1.545,1.545,0,0,1-1.214,1.347c-.733.02-.852-.581-.97-1.108a4.87,4.87,0,0,1-.057-1.057q0-7.269-.007-14.541a1.455,1.455,0,0,0-.135-.856c-.811-.945-1.681-1.841-2.617-2.847-1.233,1.374-2.408,2.686-3.633,4.053,1.305.934,1,2.58,1,4.142q0,7.025.008,14.05a1.607,1.607,0,0,0,.164.928c.922,1.138,1.9,2.229,2.905,3.387l4.385-4c.493,1.869,2.125,2.657,3.132,4.084l3.591-3.845c-1.151-.838-1.124-2.008-1.121-3.2" transform="translate(-32.821 -10.282)" fill="#fd4ac2"/>
    <path id="Path_1765" data-name="Path 1765" d="M148.688,70.836c.032-4.764.017-9.529,0-14.293,0-.317-.075-.78-.287-.928-1.764-1.229-3.567-2.4-5.4-3.615l-6.715,5.658c.416,0,.6,0,.776,0,1.337-.023,2.674-.072,4.01-.063a2.137,2.137,0,0,1,1.828,1.069c.278.425.27.706-.248.956a18.5,18.5,0,0,0-1.918,1.093c-3.847,2.455-5.813,5.878-5.357,10.509.3,3.06,2.024,5.23,4.439,7.017l3.492-3.7a9.112,9.112,0,0,0,3.056,3.636l3.685-3.507c-1.255-1.043-1.374-2.391-1.365-3.828M143.462,67c0,1.279.008,2.558,0,3.837a3.345,3.345,0,0,1-.118.965c-.221.7-.765.932-1.312.453a4.612,4.612,0,0,1-1.334-1.694,8.479,8.479,0,0,1,1.135-7.984.777.777,0,0,1,.276-.3c.3-.135.687-.387.926-.3.22.084.4.548.412.851.043,1.386.018,2.775.018,4.164" transform="translate(-26.742 -10.277)" fill="#fd4ac2"/>
    <path id="Path_1766" data-name="Path 1766" d="M222.992,73.44l-3.975-4.265-3.371,3.481,5.287,5.595c2-1.915,3.929-3.721,5.8-5.584a3.846,3.846,0,0,0,1.009-3.246,5.4,5.4,0,0,0-1.368-2.91q-2.961-3.653-5.921-7.31c-.593-.737-.534-1.012.341-1.614l2.815,3.247c1.161-1.253,2.227-2.4,3.314-3.579l-4.386-5.081a2.852,2.852,0,0,0-.323.244c-1.89,2-3.786,4-5.658,6.023a2.527,2.527,0,0,0-.5.92c-.564,1.723.116,3.136,1.172,4.443q3.035,3.75,6.072,7.5c.7.871.62,1.458-.309,2.134" transform="translate(-42.618 -10.311)" fill="#fd4ac2"/>
    <path id="Path_1767" data-name="Path 1767" d="M126.72,78.148l4.952-4.69c-3.4-.542-4.829-3.231-6.556-5.662.29-.337.531-.628.782-.911,1.794-2.017,3.575-4.046,5.4-6.039a.9.9,0,0,0,.134-1.265c-1.433-2.443-2.824-4.911-4.233-7.368-.117-.2-.262-.393-.4-.591-9.254,6.6-8.749,20.772-.081,26.525M126.4,61.61a2.119,2.119,0,0,1-.207,1.737,16.663,16.663,0,0,1-2,2.159c-1.5-2.524-1.107-4.884.108-7.458a37.252,37.252,0,0,1,2.1,3.562" transform="translate(-23.723 -10.202)" fill="#fd4ac2"/>
    <path id="Path_1768" data-name="Path 1768" d="M200.446,65.83a15.4,15.4,0,0,0,6.541,12.27l4.951-4.679c-3.334-.534-4.742-3.246-6.47-5.658,2.084-2.345,4.1-4.639,6.151-6.9a.943.943,0,0,0,.156-1.338c-.761-1.227-1.449-2.5-2.166-3.75-.8-1.389-1.591-2.778-2.446-4.272-4.695,3.717-7.021,8.459-6.717,14.329m4.257-7.74c.72,1.18,1.413,2.247,2.032,3.354a1.763,1.763,0,0,1-.358,2.178c-.554.6-1.148,1.155-1.724,1.729-1.415-1.329-1.413-4.795.05-7.261" transform="translate(-39.608 -10.178)" fill="#fd4ac2"/>
    <path id="Path_1769" data-name="Path 1769" d="M186.92,58.422c-.019,6.047-.01,12.093-.01,18.14v.959h5.115v-1c0-5.148.026-10.3-.022-15.443a2.194,2.194,0,0,1,1.129-2.1l1.93,2.254c1.025-1.395,1.982-2.683,2.917-3.985a.6.6,0,0,0,.072-.52c-.851-1.476-1.73-2.936-2.649-4.482l-3.212,3.87c-.509-1.718-1.835-2.691-2.745-4.054-1.144,1.139-2.2,2.162-3.208,3.23a.8.8,0,0,0,.033.744,4.066,4.066,0,0,1,.652,2.394" transform="translate(-36.79 -10.287)" fill="#fd4ac2"/>
    <path id="Path_1770" data-name="Path 1770" d="M107.358,59.619c-.014,5.663-.006,11.326-.006,16.99v.925h5.107V76.517c0-5.2.025-10.4-.022-15.6A2.017,2.017,0,0,1,113.567,59c.319.376.615.728.914,1.077.315.369.635.735,1,1.156a18.245,18.245,0,0,1,1.755-2.334c1.387-1.341,1.378-2.591.168-4.039a20.623,20.623,0,0,1-1.6-2.608l-3.2,3.9c-.442-1.725-1.829-2.649-2.64-4l-3.573,3.512c1.078,1.09.971,2.519.967,3.943" transform="translate(-21.026 -10.309)" fill="#fd4ac2"/>
    <path id="Path_1771" data-name="Path 1771" d="M155.464,59.233c-.04,4.982-.018,9.964-.008,14.946a1.55,1.55,0,0,0,.178.924c.864,1,1.789,1.956,2.738,2.975l3.855-3.515a6.2,6.2,0,0,0-.423-.531,3.819,3.819,0,0,1-1.151-3.1c.074-1.576.018-3.157.018-4.736,0-2.913.024-5.826-.018-8.738-.01-.738.225-.984.933-.895a8.881,8.881,0,0,0,1.079.008V54.05c-.481,0-.912-.025-1.34.006-.5.037-.672-.166-.662-.659.025-1.116.01-2.232,0-3.348,0-.33-.027-.659-.038-.891l-6.506,6.426c1.318.85,1.35,2.209,1.339,3.648" transform="translate(-30.459 -9.715)" fill="#fd4ac2"/>
    <path id="Path_1772" data-name="Path 1772" d="M122.962,95.286l-3.335,3.887-.177-.088V89.822l-5.966,1.717a6.4,6.4,0,0,1,.908,3.907q-.029,12.178-.01,24.354v.976h5.079V103.829a2.3,2.3,0,0,1,.02-.73c.11-.313.258-.74.5-.842a1.088,1.088,0,0,1,.946.237,5.489,5.489,0,0,1,1.136,1.475,21.177,21.177,0,0,1,1.987,12.393,50.633,50.633,0,0,1-1.5,5.885,15.322,15.322,0,0,0,6.06-11.349c.542-6.007-2.225-13.427-5.651-15.612" transform="translate(-22.428 -17.751)" fill="#fd4ac2"/>
    <path id="Path_1773" data-name="Path 1773" d="M74.191,97.174c-.378-.308-.653-.343-.976-.021a29.026,29.026,0,0,0-3.119,3.184,14.452,14.452,0,0,0-2.627,7.45,16.829,16.829,0,0,0,6.375,15.379c4.387-4.289,7.054-9.181,6.014-15.552a16.13,16.13,0,0,0-5.666-10.44m2.621,18.646c-.223.866-.81,1.108-1.534.6a5.753,5.753,0,0,1-1.332-1.3,19.3,19.3,0,0,1-3.519-9.78,10.081,10.081,0,0,1,.215-1.359.888.888,0,0,1,1.506-.546,4.478,4.478,0,0,1,1.118,1.061,19.122,19.122,0,0,1,3.676,9.961,4.388,4.388,0,0,1-.129,1.371" transform="translate(-13.317 -19.156)" fill="#fd4ac2"/>
    <path id="Path_1774" data-name="Path 1774" d="M90.48,90.078c-.332-.42-.623-.392-1.044-.164-1.2.65-2.415,1.266-3.624,1.9-.932.486-1.862.974-2.81,1.47a7.745,7.745,0,0,1,1.2,4.246l-1.646.083v2.382l1.72.083v20.677h5.344V99.987h2.349V97.55H89.95c-.613-1.3-1.132-2.417-1.667-3.525-.105-.219-.3-.4-.394-.619a1.551,1.551,0,0,1-.034-.512c.188.04.432.02.553.132a12.138,12.138,0,0,1,.873.972l1.539,1.76c.677-.869,1.3-1.622,1.854-2.423a.821.821,0,0,0-.1-.749c-.674-.856-1.423-1.654-2.1-2.509" transform="translate(-16.315 -17.737)" fill="#fd4ac2"/>
    <path id="Path_1775" data-name="Path 1775" d="M140.7,115.061c-.534-.652-.971-1.383-1.5-2.043-.379-.476-.314-.806.088-1.248,1.926-2.118,3.807-4.277,5.728-6.4a.808.808,0,0,0,.112-1.131c-1.484-2.54-2.93-5.1-4.394-7.652a3.8,3.8,0,0,0-.343-.424c-4.748,3.83-7.059,8.7-6.6,14.745a15.443,15.443,0,0,0,6.535,11.841l5.01-4.743c-2.107-.16-3.435-1.475-4.643-2.946m-2.77-5.007c-1.393-1.834-1.358-4.94.091-7.34a38.6,38.6,0,0,1,2.025,3.437,2.016,2.016,0,0,1-.114,1.678,17.826,17.826,0,0,1-2,2.225" transform="translate(-26.43 -19.005)" fill="#fd4ac2"/>
    <path id="Path_1776" data-name="Path 1776" d="M109.631,98.632c-.551.048-.73-.184-.692-.707.033-.461.006-.926.006-1.389,0-.961,0-1.922,0-2.94l-6.567,6.554c1.454.863,1.322,2.332,1.314,3.8-.022,4.931-.012,9.862,0,14.793a1.534,1.534,0,0,0,.189.923c.871,1,1.8,1.957,2.764,2.986l3.843-3.5a5.443,5.443,0,0,0-.414-.542,3.971,3.971,0,0,1-1.151-3.1c.057-4.44.022-8.881.022-13.322v-1.045h2.012V98.624c-.468,0-.9-.03-1.326.007" transform="translate(-20.233 -18.497)" fill="#fd4ac2"/>
    <path id="Path_1777" data-name="Path 1777" d="M174.535,99.274c-.657-5.05-3.337-8.877-7.026-12.279l-4.525,5.234-.218-.092v-3.95h-8.289c1.9,1.755,1.567,3.886,1.568,5.938q.007,12.832,0,25.664a1.784,1.784,0,0,0,.018.647c.083.2.3.486.455.489,2.046.033,4.092.022,6.28.022,0-.465,0-.814,0-1.162q0-11.729,0-23.457c0-1.05.579-1.413,1.51-.863a5.469,5.469,0,0,1,1.4,1.226c3.432,4.19,4.159,9.052,3.484,14.245a31.761,31.761,0,0,1-2.927,9.138c-.116.252-.207.516-.335.838h8.127v-3.954c-1.264.213-2.37,1.009-3.766.613.363-.768.674-1.457,1.01-2.133,2.54-5.1,3.978-10.389,3.227-16.162" transform="translate(-30.529 -17.193)" fill="#fd4ac2"/>
    <path id="Path_1778" data-name="Path 1778" d="M204.406,115.692c-.034-3.541.006-7.083-.027-10.624a5.421,5.421,0,0,1,1.023-3.9c-1.991-1.22-3.914-2.41-5.858-3.563a.789.789,0,0,0-.7.116c-.876.694-1.749,1.4-2.568,2.158a16.871,16.871,0,0,0-2.143,22.738c.233.317.5.612.777.959l4.05-4.35c.351.554.663,1.059.987,1.557s.7.976.993,1.5a2.369,2.369,0,0,1-.612,3.271,3.029,3.029,0,0,1-3.268.7,20.343,20.343,0,0,1-3.129-1.865,13.951,13.951,0,0,1-1.6-1.514l-2.138,3.919a12.521,12.521,0,0,0,7.413,1.911c5.806-.382,9.341-6.862,7.152-11.026a4.474,4.474,0,0,1-.359-1.982m-5.247.326a3.33,3.33,0,0,1-.357,1.009c-.384-.156-.872-.211-1.132-.483a9.6,9.6,0,0,1-2.1-4.281,14.127,14.127,0,0,1,.106-8.44,7.945,7.945,0,0,1,.427-.97,3.509,3.509,0,0,1,.322-.443c.84.493,1.674.951,2.465,1.473a.944.944,0,0,1,.273.7q.024,5.719-.007,11.439" transform="translate(-37.589 -19.282)" fill="#fd4ac2"/>
    <path id="Path_1779" data-name="Path 1779" d="M220.469,95.988l-3.44,4.029-.177-.07V90.67l-5.978,1.715a6.278,6.278,0,0,1,.905,3.825q-.028,12.175-.01,24.351v1.071h5.073V104.671a2.252,2.252,0,0,1,.022-.73c.115-.312.269-.736.518-.838a1.062,1.062,0,0,1,.94.248,6.535,6.535,0,0,1,1.285,1.764c2.47,5.809,2.94,11.666.265,17.561-.067.147-.108.306-.161.459a15.51,15.51,0,0,0,6.368-13.64,19.281,19.281,0,0,0-5.611-13.506" transform="translate(-41.675 -17.919)" fill="#fd4ac2"/>
    <path id="Path_1780" data-name="Path 1780" d="M238.742,101.958V99.487h-2.069V94.572l-6.558,6.437c1.431.833,1.365,2.227,1.356,3.652-.03,4.985-.015,9.971,0,14.957a1.525,1.525,0,0,0,.19.92c.871,1,1.8,1.954,2.767,2.981l3.844-3.5a6.219,6.219,0,0,0-.422-.542,3.991,3.991,0,0,1-1.155-3.1c.061-4.44.024-8.881.024-13.323v-.984l2.027-.113" transform="translate(-45.477 -18.69)" fill="#fd4ac2"/>
    <path id="Path_1781" data-name="Path 1781" d="M187.365,100.816c-.891-1.094-1.8-2.169-2.758-3.307l-3.575,3.312a4.844,4.844,0,0,1,1.2,3.835c-.03,5.771-.013,11.542-.013,17.313v1h5.21a2.949,2.949,0,0,0,.059-.386q0-10.615,0-21.232a.913.913,0,0,0-.12-.54" transform="translate(-35.777 -19.271)" fill="#fd4ac2"/>
    <path id="Path_1782" data-name="Path 1782" d="M185.931,95.347a2.022,2.022,0,0,0,1.744-1.711c-1.348.034-1.454-.037-3.067-2.092l-2.2,2.26a3.209,3.209,0,0,0,3.522,1.543" transform="translate(-36.049 -18.092)" fill="#fd4ac2"/>
  </g>
</svg>
