<svg id="Group_1003" data-name="Group 1003" xmlns="http://www.w3.org/2000/svg" xmlns:xlink="http://www.w3.org/1999/xlink" width="213.409" height="133.815" viewBox="0 0 213.409 133.815">
  <defs>
    <clipPath id="clip-path">
      <rect id="Rectangle_1037" data-name="Rectangle 1037" width="213.409" height="133.815" fill="none"/>
    </clipPath>
  </defs>
  <path id="Path_2020" data-name="Path 2020" d="M60.47,68.476h8.4V82.368h14V68.476h8.4v36.287h-8.4V90.144h-14v14.619h-8.4Z" transform="translate(-18.379 -20.812)" fill="#fff"/>
  <g id="Group_1002" data-name="Group 1002">
    <g id="Group_1001" data-name="Group 1001" clip-path="url(#clip-path)">
      <path id="Path_2021" data-name="Path 2021" d="M107.457,68.475h16.951c8.606,0,14.2,3.991,14.2,11.975s-5.6,11.975-14.2,11.975h-8.553v12.337h-8.4Zm8.4,17H124.2c4.3,0,6.013-2.126,6.013-5.028s-1.711-5.028-6.013-5.028h-8.347Z" transform="translate(-32.659 -20.812)" fill="#fff"/>
      <path id="Path_2022" data-name="Path 2022" d="M154.671,68.475h16.951c8.6,0,14.2,3.991,14.2,11.975s-5.6,11.975-14.2,11.975h-8.553v12.337h-8.4Zm8.4,17h8.347c4.3,0,6.013-2.126,6.013-5.028s-1.71-5.028-6.013-5.028h-8.347Z" transform="translate(-47.009 -20.812)" fill="#fff"/>
      <path id="Path_2023" data-name="Path 2023" d="M201.884,68.476h8.4V82.368h14V68.476h8.4v36.287h-8.4V90.144h-14v14.619h-8.4Z" transform="translate(-61.358 -20.812)" fill="#fff"/>
      <path id="Path_2024" data-name="Path 2024" d="M140.863,1.588A2.748,2.748,0,0,0,143.679,0h2.779V12.633h-2.924V3.446a3.338,3.338,0,0,1-2.671.849Z" transform="translate(-42.812)" fill="#fff"/>
      <path id="Path_2025" data-name="Path 2025" d="M144.664,179.667c1.011-.975,1.3-1.516,1.3-2.31a1.563,1.563,0,0,0-3.122-.036,1.994,1.994,0,0,0,.163.794l-2.834.541a3.8,3.8,0,0,1-.253-1.425c0-1.968,1.607-3.863,4.458-3.863,2.815,0,4.4,1.516,4.4,3.664,0,1.642-.686,2.779-2.184,4.222l-2.527,2.437h4.711v2.562h-8.9v-1.985Z" transform="translate(-42.514 -52.692)" fill="#fff"/>
      <path id="Path_2026" data-name="Path 2026" d="M154.588,173.731h8.175v2.527h-6.118l-.27,2.346a4.444,4.444,0,0,1,2.743-.867,4.016,4.016,0,0,1,4.385,4.3c0,2.653-1.93,4.584-4.927,4.584-3.122,0-4.71-1.823-4.71-3.88a2.7,2.7,0,0,1,.18-.993l2.743.649a1.471,1.471,0,0,0-.054.415c0,1.029.849,1.39,1.895,1.39a2.13,2.13,0,0,0,0-4.259,2.78,2.78,0,0,0-2.418,1.3l-2.22-.542Z" transform="translate(-46.765 -52.802)" fill="#fff"/>
      <path id="Path_2027" data-name="Path 2027" d="M201.831,5.106H170.08v5.569h12.542a57.7,57.7,0,0,1,0,115.4H170.776v5.569h31.055a63.27,63.27,0,1,0,0-126.541m7.938,120.413a63.258,63.258,0,0,0,0-114.285,57.69,57.69,0,0,1,0,114.285" transform="translate(-51.692 -1.552)" fill="#fff"/>
      <path id="Path_2028" data-name="Path 2028" d="M95.022,126.078H82.48a57.7,57.7,0,1,1,0-115.4H95.022V5.106H63.27a63.27,63.27,0,1,0,0,126.54H95.022ZM5.569,68.376A57.779,57.779,0,0,1,55.332,11.234a63.258,63.258,0,0,0,0,114.285A57.78,57.78,0,0,1,5.569,68.376" transform="translate(0 -1.552)" fill="#fff"/>
      <path id="Path_2029" data-name="Path 2029" d="M152.986.181h8.175V2.708h-6.118l-.27,2.346a4.444,4.444,0,0,1,2.743-.867,4.016,4.016,0,0,1,4.385,4.3c0,2.653-1.93,4.584-4.927,4.584-3.122,0-4.71-1.823-4.71-3.88a2.7,2.7,0,0,1,.18-.993l2.743.649a1.47,1.47,0,0,0-.054.415c0,1.029.849,1.39,1.895,1.39A1.943,1.943,0,0,0,159.1,8.483a1.93,1.93,0,0,0-2.076-2.094,2.78,2.78,0,0,0-2.418,1.3l-2.22-.542Z" transform="translate(-46.278 -0.055)" fill="#fff"/>
    </g>
  </g>
</svg>
