<svg xmlns="http://www.w3.org/2000/svg" width="246" height="166.321" data-name="Group 807" viewBox="0 0 246 166.321">
        <g fill="currentColor">
            <path d="M124.568 195v9.661h7.095v-1.96H126.8v-2.084h4.431v-1.9H126.8v-1.753h4.817V195Z" data-name="Path 1729" transform="translate(-24.618 -38.538)"/>
            <path d="M137.181 200.978c1.642.359 2.332 1.008 2.332 2.2 0 1.338-1.131 2.332-2.8 2.332a3.333 3.333 0 0 1-3.285-2.139l1.588-.98a1.923 1.923 0 0 0 1.725 1.435c.5 0 .87-.193.87-.538 0-.414-.428-.607-1.312-.787-1.311-.262-2.4-.938-2.4-2.194 0-1.3 1.188-2.029 2.595-2.029a2.863 2.863 0 0 1 2.926 1.753l-1.491.869a1.5 1.5 0 0 0-1.408-1.159c-.482 0-.8.166-.8.469 0 .372.579.58 1.463.773" data-name="Path 1730" transform="translate(-26.369 -39.184)"/>
            <path d="M140.755 198.058h.994v-1.849h2.07v1.849h1.422v1.6h-1.422v2.706c0 .552.3.883.759.883a1.77 1.77 0 0 0 .649-.11l.193 1.725a3.64 3.64 0 0 1-1.38.235 2.12 2.12 0 0 1-2.291-2.319v-3.12h-.994Z" data-name="Path 1731" transform="translate(-27.817 -38.776)"/>
            <path d="M150.423 196.22a2.1 2.1 0 0 0 2.154-1.22h2.123v9.661h-2.235v-7.025a2.559 2.559 0 0 1-2.043.648Z" data-name="Path 1732" transform="translate(-29.728 -38.538)"/>
            <path d="M159.1 202a.981.981 0 0 0-.1.442c0 .359.331.69 1.049.69 1.062 0 1.822-.939 1.96-2.609a2.82 2.82 0 0 1-2.085.759 3.154 3.154 0 0 1-3.381-3.216 3.414 3.414 0 0 1 3.671-3.3c2.361 0 3.879 1.629 3.879 4.459a8.165 8.165 0 0 1-.552 3.188 3.629 3.629 0 0 1-3.437 2.4c-2.016 0-3.175-1.008-3.175-2.5a2.075 2.075 0 0 1 .165-.787Zm2.76-3.975a1.622 1.622 0 1 0-1.614 1.573 1.517 1.517 0 0 0 1.614-1.573" data-name="Path 1733" transform="translate(-30.938 -38.491)"/>
            <path d="M166.335 196.22a2.1 2.1 0 0 0 2.154-1.22h2.125v9.661h-2.235v-7.025a2.559 2.559 0 0 1-2.043.648Z" data-name="Path 1734" transform="translate(-32.872 -38.538)"/>
            <path d="m172.321 201.381 4.624-6.381h2.236v6.238h.924v1.932h-.924v1.491h-2.154v-1.491h-4.707Zm2.264-.138h2.442V197.9Z" data-name="Path 1735" transform="translate(-34.055 -38.538)"/>
            <path d="M106.247 29.109h5.171v8.556h8.62v-8.556h5.171v22.346h-5.171v-9h-8.62v9h-5.171Z" data-name="Path 1736" transform="translate(-20.997 -5.753)"/>
            <path d="M142.371 51.455H137.2v-8.491l-7.438-13.855h5.81l3.575 7.119s.351.894.638 1.66c.287-.766.639-1.66.639-1.66L144 29.109h5.778l-7.406 13.855Z" data-name="Path 1737" transform="translate(-25.645 -5.753)"/>
            <path d="M154.589 29.109h7.211c7.119 0 12.45 3.607 12.45 11.173s-5.331 11.173-12.45 11.173h-7.215Zm14.493 11.173c0-4.15-2.586-6.513-6.8-6.513h-2.522v13.025h2.522c4.213 0 6.8-2.362 6.8-6.512" data-name="Path 1738" transform="translate(-30.551 -5.753)"/>
            <path d="M179.894 29.109h16.313v4.533h-11.142V37.7h10.248v4.4h-10.248v4.821H196.3v4.533h-16.406Z" data-name="Path 1739" transform="translate(-35.552 -5.753)"/>
            <path d="M107.024 60.275h10.439c5.3 0 8.747 2.458 8.747 7.375s-3.448 7.375-8.747 7.375H112.2v7.6h-5.171Zm5.176 10.471h5.14c2.649 0 3.7-1.309 3.7-3.1s-1.054-3.1-3.7-3.1h-5.14Z" data-name="Path 1740" transform="translate(-21.151 -11.912)"/>
            <path d="M134.7 60.276h4.853l9.1 22.347h-5.619l-2.011-5.4h-7.789l-2.012 5.4H125.6Zm.16 12.546h4.54l-1.341-3.639s-.511-1.309-.926-2.65a44.638 44.638 0 0 1-.926 2.65Z" data-name="Path 1741" transform="translate(-24.823 -11.912)"/>
            <path d="M161.165 73.811h-2.777v8.811h-5.171V60.276h9.736c5.332 0 8.364 2.393 8.364 6.575 0 3.416-1.947 5.268-4.852 6.513l5.235 9.258h-5.555Zm-2.777-4.211h5.076c1.979 0 2.841-1.054 2.841-2.554s-.862-2.554-2.841-2.554h-5.076Z" data-name="Path 1742" transform="translate(-30.28 -11.912)"/>
            <path d="m187.768 68.7 8.4 13.919h-5.878l-6.129-10.216-1.979 2.076v8.14h-5.172V60.276h5.171v7.661c.639-.734 1.277-1.436 1.277-1.436l6-6.225h6.448Z" data-name="Path 1743" transform="translate(-34.982 -11.912)"/>
            <path d="M78.814 91.443h10.439c5.3 0 8.747 2.458 8.747 7.375s-3.448 7.375-8.747 7.375h-5.268v7.6h-5.171Zm5.171 10.471h5.14c2.649 0 3.7-1.309 3.7-3.1s-1.054-3.1-3.7-3.1h-5.14Z" data-name="Path 1744" transform="translate(-15.576 -18.072)"/>
            <path d="M0 0H5.171V22.346H0z" data-name="Rectangle 913" transform="translate(82.839 73.371)"/>
            <path d="M132.415 108.093c-2.586 4.054-5.491 6.034-10.311 6.034-6.768 0-11.62-4.661-11.62-11.621s5.076-11.62 11.748-11.62c4.916 0 8.491 2.491 9.992 5.874l-4.31 3c-1.213-2.586-3.193-4.086-5.842-4.086-3.48 0-6.417 2.617-6.417 6.831a6.469 6.469 0 0 0 6.449 6.832c2.873 0 4.661-1.533 6.129-4.246Z" data-name="Path 1745" transform="translate(-21.835 -17.962)"/>
            <path d="M136.426 91.443h18.388v4.533h-6.608v17.813h-5.171V95.977h-6.608Z" data-name="Path 1746" transform="translate(-26.962 -18.072)"/>
            <path d="M178.1 104.978c0 5.714-3.991 9.258-9.577 9.258s-9.577-3.543-9.577-9.258V91.443h5.172v12.9c0 3.48 1.883 5.108 4.405 5.108s4.405-1.628 4.405-5.108v-12.9h5.172Z" data-name="Path 1747" transform="translate(-31.412 -18.072)"/>
            <path d="M192.279 104.979H189.5v8.811h-5.171V91.444h9.736c5.332 0 8.364 2.393 8.364 6.575 0 3.416-1.947 5.267-4.852 6.513l5.235 9.258h-5.552Zm-2.777-4.214h5.076c1.979 0 2.841-1.054 2.841-2.554s-.862-2.554-2.841-2.554H189.5Z" data-name="Path 1748" transform="translate(-36.429 -18.072)"/>
            <path d="M207.328 91.443h16.313v4.533H212.5v4.054h10.248v4.406H212.5v4.821h11.237v4.533h-16.409Z" data-name="Path 1749" transform="translate(-40.974 -18.072)"/>
            <path d="M92.5 122.61h5.171v8.556h8.62v-8.556h5.171v22.346h-5.171v-9h-8.62v9H92.5Z" data-name="Path 1750" transform="translate(-18.281 -24.231)"/>
            <path d="M128.678 145.294a11.621 11.621 0 1 1 11.748-11.621 11.434 11.434 0 0 1-11.748 11.621m6.576-11.621a6.581 6.581 0 1 0-6.576 6.831 6.421 6.421 0 0 0 6.576-6.831" data-name="Path 1751" transform="translate(-23.109 -24.121)"/>
            <path d="M165.726 136.145c0 5.714-3.99 9.258-9.577 9.258s-9.577-3.543-9.577-9.258V122.61h5.172v12.9c0 3.48 1.883 5.108 4.405 5.108s4.406-1.628 4.406-5.108v-12.9h5.171Z" data-name="Path 1752" transform="translate(-28.967 -24.231)"/>
            <path d="M181.37 131.311c4.916 1.021 7.151 3.064 7.151 6.8 0 3.863-2.937 7.183-8.4 7.183-5.81 0-8.683-3.064-9.8-7.246l4.374-2.107c.8 3.065 2.3 4.821 5.426 4.821 2.012 0 3.32-.99 3.32-2.3 0-1.723-1.66-2.649-5.012-3.288-4.5-.862-7.022-3.064-7.022-6.7 0-3.895 3.192-6.417 8.045-6.417 4.405 0 7.119 1.947 8.683 5.842l-3.863 2.3c-.8-2.362-2.394-3.926-4.917-3.926-1.883 0-3.287.83-3.287 2.106 0 1.182 1.277 2.107 5.3 2.937" data-name="Path 1753" transform="translate(-33.661 -24.121)"/>
            <path d="M193.641 122.61h16.313v4.533h-11.142v4.057h10.248v4.4h-10.248v4.821h11.237v4.533h-16.408Z" data-name="Path 1754" transform="translate(-38.269 -24.231)"/>
            <path d="M173.067 145.866H72.932A72.933 72.933 0 0 1 72.932 0h100.135a72.933 72.933 0 1 1 0 145.866M72.932 6.419a66.514 66.514 0 0 0 0 133.028h100.135a66.514 66.514 0 1 0 0-133.028Z" data-name="Path 1755"/>
            <path d="M156.379 145.866H100.53A72.933 72.933 0 0 1 100.53 0h55.848a72.933 72.933 0 0 1 0 145.866M100.53 6.419a66.514 66.514 0 0 0 0 133.028h55.848a66.514 66.514 0 0 0 0-133.028Z" data-name="Path 1756" transform="translate(-5.454)"/>
        </g>

</svg>
