<svg id="Group_983" data-name="Group 983" xmlns="http://www.w3.org/2000/svg" xmlns:xlink="http://www.w3.org/1999/xlink" width="246" height="166.32" viewBox="0 0 246 166.32">
  <defs>
    <clipPath id="clip-path">
      <rect id="Rectangle_917" data-name="Rectangle 917" width="246" height="166.32" fill="#fead52"/>
    </clipPath>
  </defs>
  <g id="Group_817" data-name="Group 817" clip-path="url(#clip-path)">
    <path id="Path_1798" data-name="Path 1798" d="M173.067,145.866H72.932A72.933,72.933,0,0,1,72.932,0H173.067a72.933,72.933,0,1,1,0,145.866M72.932,6.419a66.514,66.514,0,0,0,0,133.028H173.067a66.514,66.514,0,1,0,0-133.028Z" fill="#fead52"/>
    <path id="Path_1799" data-name="Path 1799" d="M156.379,145.866H100.53A72.933,72.933,0,0,1,100.53,0h55.848a72.933,72.933,0,0,1,0,145.866M100.53,6.419a66.514,66.514,0,0,0,0,133.028h55.848a66.514,66.514,0,0,0,0-133.028Z" transform="translate(-5.454)" fill="#fead52"/>
    <path id="Path_1800" data-name="Path 1800" d="M131.8,195.216h2.241v3.708h3.736v-3.708h2.241V204.9h-2.241V201h-3.736v3.9H131.8Z" transform="translate(-26.048 -38.58)" fill="#fead52"/>
    <path id="Path_1801" data-name="Path 1801" d="M142.683,195.217h4.524c2.3,0,3.791,1.065,3.791,3.2s-1.495,3.2-3.791,3.2h-2.283V204.9h-2.241Zm2.241,4.537h2.227c1.148,0,1.6-.567,1.6-1.342s-.457-1.342-1.6-1.342h-2.227Z" transform="translate(-28.198 -38.58)" fill="#fead52"/>
    <path id="Path_1802" data-name="Path 1802" d="M153.614,195.217h4.524c2.3,0,3.79,1.065,3.79,3.2s-1.494,3.2-3.79,3.2h-2.283V204.9h-2.241Zm2.241,4.537h2.227c1.148,0,1.6-.567,1.6-1.342s-.457-1.342-1.6-1.342h-2.227Z" transform="translate(-30.358 -38.58)" fill="#fead52"/>
    <path id="Path_1803" data-name="Path 1803" d="M164.545,195.216h2.241v3.708h3.736v-3.708h2.241V204.9h-2.241V201h-3.736v3.9h-2.241Z" transform="translate(-32.519 -38.58)" fill="#fead52"/>
    <path id="Path_1804" data-name="Path 1804" d="M120.957,75.053q.028-15.178,0-30.357a3.219,3.219,0,0,0-1.778-3.095c-2.308-1.164-4.684.34-4.741,3.081-.066,3.156-.018,6.315-.019,9.472v1.12H110.4c0-3.315.007-6.544-.008-9.772a9.733,9.733,0,0,0-.165-1.705,3.084,3.084,0,0,0-2.91-2.57,3.125,3.125,0,0,0-3.228,2.028,6.545,6.545,0,0,0-.278,2.008q-.025,14.586,0,29.173a7.447,7.447,0,0,0,.173,1.705,3.2,3.2,0,0,0,3.729,2.315c1.78-.367,2.677-1.618,2.687-3.851.018-3.911,0-7.822.006-11.733V61.684h4.014V63c0,3.839-.021,7.679.018,11.518a6.027,6.027,0,0,0,.4,2.3,3.105,3.105,0,0,0,3.534,1.618,3.222,3.222,0,0,0,2.587-3.379" transform="translate(-20.514 -8.143)" fill="#fead52"/>
    <path id="Path_1805" data-name="Path 1805" d="M174.265,69.111q.037-9.094,0-18.188a14.88,14.88,0,0,0-.207-2.462c-.615-3.611-2.755-6.112-6.229-6.673a33.354,33.354,0,0,0-7.195-.194c-1.955.113-2.886,1.228-3.22,3.181a9.646,9.646,0,0,0-.131,1.6q-.014,6.834-.006,13.668c0,4.7-.019,9.4.008,14.1.017,2.918,1.344,4.35,4.233,4.446a55.1,55.1,0,0,0,5.706-.168,7.058,7.058,0,0,0,4.165-1.834c2.272-1.982,2.865-4.636,2.877-7.477m-6.685,1.135c-.408,2.124-1.256,2.818-3.8,2.522V47.386a2.692,2.692,0,0,1,3.8,2.361,19.112,19.112,0,0,1,.2,2.674q.027,7.631,0,15.26a13.906,13.906,0,0,1-.2,2.565" transform="translate(-31.081 -8.2)" fill="#fead52"/>
    <path id="Path_1806" data-name="Path 1806" d="M147.43,51.354h.116c0-2.3.024-4.593-.009-6.888a3.112,3.112,0,0,0-2.343-3.112,3.183,3.183,0,0,0-4.126,3.232c-.028,4.09.009,8.179-.022,12.267a11.984,11.984,0,0,1-.313,2.55,1.617,1.617,0,0,1-3.132-.018,11.983,11.983,0,0,1-.306-2.551c-.031-4.126,0-8.252-.027-12.376a3.162,3.162,0,0,0-3.3-3.239,3.116,3.116,0,0,0-3.152,3.157c-.026,4.771-.108,9.544.043,14.312.1,3.24,1.275,6.024,4.525,7.489a1.22,1.22,0,0,1,.464.929c.045,1.721,0,3.445.028,5.166a25.66,25.66,0,0,0,.181,3.747,3.079,3.079,0,0,0,3.811,2.413c1.675-.387,2.559-1.576,2.581-3.591.028-2.547-.011-5.094.03-7.64a1.341,1.341,0,0,1,.474-1.036c3.014-1.367,4.261-3.887,4.444-6.962.156-2.608.032-5.232.032-7.849" transform="translate(-25.844 -8.146)" fill="#fead52"/>
    <path id="Path_1807" data-name="Path 1807" d="M184.491,75.454a3.14,3.14,0,0,0,2.962,2.94c2.973.179,5.959.121,8.941.156a1.733,1.733,0,0,0,.419-.1,2.985,2.985,0,0,0,2.332-3.178,2.807,2.807,0,0,0-2.631-2.884c-1.5-.132-3.015-.083-4.524-.118-.38-.009-.758-.038-1.192-.059,0-3.5.007-6.874-.006-10.245,0-.573.247-.736.784-.728,1.331.02,2.663.024,3.993-.012a2.9,2.9,0,0,0,2.661-2.012A3.153,3.153,0,0,0,195.15,55c-1.427-.04-2.858-.007-4.285-.007V47.706c1.8,0,3.457.009,5.112,0a2.943,2.943,0,0,0,3.169-2.932,3,3,0,0,0-2.963-3.285c-2.7-.079-5.4-.1-8.093.018-2.271.1-3.42,1.339-3.674,3.6a10.742,10.742,0,0,0-.051,1.181q0,13.725,0,27.45a10.458,10.458,0,0,0,.123,1.714" transform="translate(-36.435 -8.186)" fill="#fead52"/>
    <path id="Path_1808" data-name="Path 1808" d="M211.82,115.528c-.01-2.584.073-5.206-2.277-7.053a4.9,4.9,0,0,0,1.713-3.592c.07-3.369.152-6.739.112-10.107a3.081,3.081,0,0,0-2.522-3.089c-2.188-.489-3.946.993-3.992,3.439-.048,2.618.027,5.239-.051,7.856-.062,2.059-1.218,2.834-3.335,2.305,0-3.2,0-6.419,0-9.641-.006-2.547-1.224-4.032-3.306-4.055-2.052-.023-3.266,1.48-3.266,4.062q0,14.584,0,29.166a8.279,8.279,0,0,0,.073,1.286,3.246,3.246,0,0,0,3.293,2.811,3.191,3.191,0,0,0,3.095-2.771,10.725,10.725,0,0,0,.107-1.715c.009-4.3,0-8.6,0-12.968,2.474-.31,3.555.5,3.737,2.781.1,1.213.052,2.437.063,3.656.023,2.69-.007,5.381.082,8.068a2.941,2.941,0,0,0,2.292,2.785,3.237,3.237,0,0,0,4.17-3.323c.04-3.3.02-6.6.008-9.9" transform="translate(-38.516 -18.101)" fill="#fead52"/>
    <path id="Path_1809" data-name="Path 1809" d="M104.828,104.67c-1.547-.035-3.095-.007-4.642-.025a2.257,2.257,0,0,1-2.244-1.4,7.722,7.722,0,0,1,.016-5.369,1.268,1.268,0,0,1,1.656-.845,2.48,2.48,0,0,1,1.26,1.109,4.143,4.143,0,0,1,.249,1.681,2.772,2.772,0,0,0,2.769,2.836,2.824,2.824,0,0,0,3.291-2.507,12.819,12.819,0,0,0-.012-2.678,6.588,6.588,0,0,0-5.171-5.9,9.674,9.674,0,0,0-5.948.261,8.035,8.035,0,0,0-3.117,2.173c-3.21,3.94-2.459,10.4,1.566,13.941a7.2,7.2,0,0,0-3.584,5.35,37.737,37.737,0,0,0-.233,7.707,8.125,8.125,0,0,0,3.639,6.311,11.1,11.1,0,0,0,6.691,1.591c4.1-.07,6.073-2,6.076-6.08,0-3.875-.008-7.751.013-11.626a1.878,1.878,0,0,1,.29-1.194,3.222,3.222,0,0,0,.709-3.762c-.607-1.447-1.954-1.545-3.272-1.576m-3.77,18.268c-2.555.55-3.774-.891-3.946-3.073a31.636,31.636,0,0,1,.189-6.1c.266-2.276,1.534-3.155,3.757-2.885Z" transform="translate(-17.902 -18.03)" fill="#fead52"/>
    <path id="Path_1810" data-name="Path 1810" d="M133.033,104.806a21.5,21.5,0,0,1-2.594-2.1,4.009,4.009,0,0,1-1.107-4.14,1.761,1.761,0,0,1,1.859-1.46,1.651,1.651,0,0,1,1.591,1.709c.067.6.105,1.213.2,1.814a2.739,2.739,0,0,0,2.611,2.422,2.661,2.661,0,0,0,3-1.9,10.118,10.118,0,0,0,.213-2.867,6.607,6.607,0,0,0-6.169-6.824c-3.078-.372-6.019.014-8.136,2.618-2.679,3.3-2.539,8.95.462,12.465a31.473,31.473,0,0,0,4.734,4.2,8.738,8.738,0,0,1,3.389,8.047,14.954,14.954,0,0,1-.6,3.254,1.894,1.894,0,0,1-1.987,1.371,2.071,2.071,0,0,1-1.964-1.435,2.993,2.993,0,0,1-.241-1.361c.185-1.483.4-2.966.712-4.427.427-2.031-.327-3.283-2.351-3.716A3.487,3.487,0,0,0,122.667,115a43.89,43.89,0,0,0-1.056,4.9c.117,5.013,2.727,9.032,8.353,9.326,4.249.222,7.542-1.508,8.78-5.71,1.958-6.637,1.283-13.889-5.711-18.715" transform="translate(-24.034 -18.051)" fill="#fead52"/>
    <path id="Path_1811" data-name="Path 1811" d="M178.111,98.078c1.847,0,3.53.01,5.215,0a2.927,2.927,0,0,0,3.158-2.823,2.985,2.985,0,0,0-2.948-3.392c-2.694-.084-5.4-.1-8.087.014-2.226.092-3.378,1.29-3.668,3.48a10.759,10.759,0,0,0-.092,1.392q-.007,13.662,0,27.323a11.43,11.43,0,0,0,.106,1.5c.258,1.911,1.237,3.092,3.165,3.218a82.749,82.749,0,0,0,8.719.109,2.913,2.913,0,0,0,2.8-3.4c-.105-1.732-1.328-2.782-3.4-2.838-1.61-.044-3.221-.009-4.889-.009V111.606c1.608,0,3.145.026,4.682-.007a2.874,2.874,0,0,0,2.772-2.276,3.142,3.142,0,0,0-3.2-3.956c-1.421-.033-2.844-.006-4.329-.006V98.078Z" transform="translate(-33.93 -18.141)" fill="#fead52"/>
    <path id="Path_1812" data-name="Path 1812" d="M160.131,98.076a2.946,2.946,0,0,0,3.18-2.925,2.986,2.986,0,0,0-2.958-3.291c-2.694-.082-5.4-.094-8.087.013-2.186.087-3.325,1.239-3.65,3.375a10.046,10.046,0,0,0-.115,1.5q-.01,13.662,0,27.322a10.616,10.616,0,0,0,.133,1.6c.29,1.866,1.246,3,3.135,3.12,2.9.187,5.813.116,8.721.144a2.262,2.262,0,0,0,.63-.14,3.006,3.006,0,0,0,2.188-3.187,2.818,2.818,0,0,0-2.569-2.838c-1.354-.13-2.726-.092-4.089-.12-.554-.011-1.108,0-1.647,0V111.607c1.6,0,3.139.026,4.675-.007a2.89,2.89,0,0,0,2.8-2.373,3.142,3.142,0,0,0-3.222-3.859c-1.421-.034-2.844-.006-4.292-.006V98.079c1.8,0,3.479.01,5.162,0" transform="translate(-29.347 -18.141)" fill="#fead52"/>
  </g>
</svg>
