<svg id="Group_984" data-name="Group 984" xmlns="http://www.w3.org/2000/svg" xmlns:xlink="http://www.w3.org/1999/xlink" width="246" height="166.32" viewBox="0 0 246 166.32">
  <defs>
    <clipPath id="clip-path">
      <rect id="Rectangle_920" data-name="Rectangle 920" width="246" height="166.32" fill="#6eff69"/>
    </clipPath>
  </defs>
  <g id="Group_820" data-name="Group 820" clip-path="url(#clip-path)">
    <path id="Path_1845" data-name="Path 1845" d="M173.067,145.866H72.932A72.933,72.933,0,0,1,72.932,0H173.067a72.933,72.933,0,1,1,0,145.866M72.932,6.419a66.514,66.514,0,0,0,0,133.028H173.067a66.514,66.514,0,1,0,0-133.028Z" fill="#6eff69"/>
    <path id="Path_1846" data-name="Path 1846" d="M156.379,145.866H100.53A72.933,72.933,0,0,1,100.53,0h55.848a72.933,72.933,0,0,1,0,145.866M100.53,6.419a66.514,66.514,0,0,0,0,133.028h55.848a66.514,66.514,0,0,0,0-133.028Z" transform="translate(-5.454)" fill="#6eff69"/>
    <path id="Path_1847" data-name="Path 1847" d="M131.8,195.216h2.241v3.708h3.736v-3.708h2.241V204.9h-2.241V201h-3.736v3.9H131.8Z" transform="translate(-26.048 -38.58)" fill="#6eff69"/>
    <path id="Path_1848" data-name="Path 1848" d="M142.683,195.217h4.524c2.3,0,3.791,1.065,3.791,3.2s-1.495,3.2-3.791,3.2h-2.283V204.9h-2.241Zm2.241,4.537h2.227c1.148,0,1.6-.567,1.6-1.342s-.457-1.342-1.6-1.342h-2.227Z" transform="translate(-28.198 -38.58)" fill="#6eff69"/>
    <path id="Path_1849" data-name="Path 1849" d="M153.614,195.217h4.524c2.3,0,3.79,1.065,3.79,3.2s-1.494,3.2-3.79,3.2h-2.283V204.9h-2.241Zm2.241,4.537h2.227c1.148,0,1.6-.567,1.6-1.342s-.457-1.342-1.6-1.342h-2.227Z" transform="translate(-30.358 -38.58)" fill="#6eff69"/>
    <path id="Path_1850" data-name="Path 1850" d="M164.545,195.216h2.241v3.708h3.736v-3.708h2.241V204.9h-2.241V201h-3.736v3.9h-2.241Z" transform="translate(-32.519 -38.58)" fill="#6eff69"/>
    <path id="Path_1851" data-name="Path 1851" d="M88.071,80.5c-.035-7.509-.02-15.017-.02-22.526v-.98c-1.433,0-2.746.027-4.057-.012a.949.949,0,0,0-1.07.726c-1.258,3.255-2.559,6.494-3.848,9.738-.79,1.987-1.584,3.973-2.442,6.124-.212-.457-.358-.749-.485-1.049Q73.027,65.165,69.9,57.812c-.129-.3-.4-.763-.627-.772C67.7,56.973,66.117,57,64.458,57v1.232q0,10.987,0,21.975c0,1.4,0,1.4,1.435,1.33.146-.007.29-.039.563-.078V61.9l.193-.023c2.832,6.726,5.663,13.453,8.605,20.44,2.72-6.9,5.329-13.518,7.939-20.138l.233.054v1.073c0,5.731.018,11.462-.019,17.192-.006.863.256,1.128,1.088,1.061a15.8,15.8,0,0,1,2.48,0c.826.064,1.1-.188,1.094-1.059" transform="translate(-12.739 -11.261)" fill="#6eff69"/>
    <path id="Path_1852" data-name="Path 1852" d="M147.479,81.495V57c-1.382,0-2.7.025-4.009-.011a.9.9,0,0,0-1.006.68c-.967,2.515-1.979,5.013-2.975,7.518-1.082,2.723-2.164,5.447-3.335,8.4-.26-.576-.438-.949-.6-1.33q-3.069-7.231-6.144-14.461c-.122-.286-.358-.735-.554-.742-1.606-.061-3.214-.035-4.878-.035V80.056c0,1.619,0,1.62,1.638,1.471a2.551,2.551,0,0,0,.392-.128V61.9l.167-.008,8.6,20.426c2.716-6.889,5.333-13.529,7.95-20.168l.229.05V81.495Z" transform="translate(-24.502 -11.261)" fill="#6eff69"/>
    <path id="Path_1853" data-name="Path 1853" d="M205.315,81.509c1.521.034,3.043.019,4.766.019L203.6,70.1c.773-.172,1.371-.27,1.948-.44a5.647,5.647,0,0,0,4.088-3.369c1.517-4.025-1.28-8.9-5.548-9.194-3.84-.265-7.714-.056-11.729-.056v1.166q0,11.034,0,22.07a2.112,2.112,0,0,0,.023.729c.08.205.3.5.474.5,1.341.042,2.684.023,4.144.023V58.106c1.493.089,2.872.064,4.216.275a4.749,4.749,0,0,1,4.127,4.795c.174,2.712-1.032,4.607-3.521,5.331a32.306,32.306,0,0,1-3.331.617.455.455,0,0,0,.018.209q3.126,5.883,6.271,11.757a.819.819,0,0,0,.53.42" transform="translate(-38.012 -11.258)" fill="#6eff69"/>
    <path id="Path_1854" data-name="Path 1854" d="M182.089,68.437a27.266,27.266,0,0,0-.894-4.116c-1.672-4.679-5-7.528-9.979-8.091a11.324,11.324,0,0,0-11.273,5.119A13.8,13.8,0,0,0,158.077,72.7a12.039,12.039,0,0,0,16.943,8.206c4.872-2.378,6.816-6.606,7.07-12.472m-6.361,7.976c-1.516,3.367-4.671,4.838-7.984,3.742a6.075,6.075,0,0,1-3.84-3.831,19.576,19.576,0,0,1,.01-14.447,6.124,6.124,0,0,1,7.639-3.931,6.3,6.3,0,0,1,4.175,3.843,17.555,17.555,0,0,1,1.326,7.265,17.726,17.726,0,0,1-1.326,7.357" transform="translate(-31.15 -11.094)" fill="#6eff69"/>
    <path id="Path_1855" data-name="Path 1855" d="M101.521,81.566c4.2-.012,8.4-.006,12.6-.006,1.328,0,1.464-.2.986-1.6h-9.8V69.677h9.2v-1.6H105.32c-.028-.313-.067-.55-.067-.787-.006-2.606.018-5.212-.019-7.817-.01-.695.209-.889.89-.88,2.666.035,5.334.016,8,.011.323,0,.645-.033.975-.051v-1.5H100.687c-.028.234-.057.354-.057.473q0,11.634-.018,23.266c0,.724.351.772.909.77" transform="translate(-19.884 -11.276)" fill="#6eff69"/>
    <path id="Path_1856" data-name="Path 1856" d="M226.843,81.553c.789.059,1.059-.177,1.048-1.013q-.07-5.191.006-10.383a3.873,3.873,0,0,1,.573-1.944c2.227-3.445,4.524-6.847,6.8-10.264.178-.267.34-.545.6-.96a11.409,11.409,0,0,1-1.437-.01,1.829,1.829,0,0,0-2,1.026c-1.516,2.41-3.127,4.76-4.7,7.132-.334.5-.677,1-1.066,1.568-.233-.335-.412-.579-.576-.831-1.784-2.748-3.557-5.5-5.364-8.236a1.381,1.381,0,0,0-.886-.619c-1.557-.063-3.119-.029-4.9-.029.29.474.469.784.664,1.084,2.384,3.673,4.784,7.336,7.137,11.028a3.22,3.22,0,0,1,.479,1.608c.045,3.246.055,6.494,0,9.741-.014.906.277,1.177,1.143,1.1a15.692,15.692,0,0,1,2.479,0" transform="translate(-42.478 -11.255)" fill="#6eff69"/>
    <path id="Path_1857" data-name="Path 1857" d="M78.165,92.746a1,1,0,0,0-1.132.781c-1.8,4.62-3.645,9.226-5.476,13.837-.231.583-.473,1.162-.8,1.959-.242-.526-.4-.842-.535-1.167Q67.118,100.843,64,93.533c-.126-.294-.418-.723-.648-.733-1.549-.065-3.1-.034-4.695-.034-.024.387-.054.656-.055.924,0,7.54.011,15.08-.02,22.62,0,.829.255,1.013,1.042,1.031.878.022.984-.34.98-1.086-.027-5.333-.014-10.666-.014-16V97.783l.225-.045,8.567,20.346,7.951-20.168.256.063v19.274h4.5V92.761c-1.36,0-2.647.036-3.93-.015" transform="translate(-11.578 -18.329)" fill="#6eff69"/>
    <path id="Path_1858" data-name="Path 1858" d="M167.971,109.373a2.861,2.861,0,0,1-.876-.822q-5.734-7.535-11.473-15.066c-.211-.276-.509-.665-.786-.68-1.272-.073-2.549-.032-3.9-.032v5.357q0,9.1.01,18.205c0,.31.034.765.229.9a1.108,1.108,0,0,0,1.727-.939q0-8.643,0-17.285V97.993a2.32,2.32,0,0,1,.852.739c4.424,5.8,8.88,11.571,13.242,17.415a2.427,2.427,0,0,0,2.915,1.055V92.81h-1.941Z" transform="translate(-29.829 -18.332)" fill="#6eff69"/>
    <path id="Path_1859" data-name="Path 1859" d="M187.271,115.789c-.882.02-1.079-.286-1.066-1.1.043-2.727.014-5.455.019-8.183,0-.323.035-.647.059-1.054h9.2v-1.618h-9.265c0-2.931.025-5.747-.017-8.562-.011-.761.273-.918.962-.909,2.543.033,5.087.014,7.631.014,1.449,0,1.512-.082,1.175-1.545H181.62c-.017.35-.044.648-.044.947,0,7.508.01,15.016-.019,22.525,0,.8.2,1.05,1.022,1.042,4.229-.039,8.459-.016,12.688-.02.3,0,.6-.033.944-.053v-1.505h-1.033c-2.636,0-5.272-.038-7.907.022" transform="translate(-35.881 -18.346)" fill="#6eff69"/>
    <path id="Path_1860" data-name="Path 1860" d="M91.662,117.073a8.836,8.836,0,0,1,.9.053c.952.167,1.415-.226,1.709-1.157.479-1.516,1.145-2.97,1.684-4.468a.949.949,0,0,1,1.047-.764q3.493.052,6.987,0a.975.975,0,0,1,1.067.752c.652,1.683,1.345,3.353,2.054,5.014.1.242.373.575.577.583,1.4.051,2.8.026,4.4.026L101.7,91.781,91.662,117.073m5.277-7.992,3.432-8.685.231,0c1.14,2.858,2.28,5.715,3.462,8.68Z" transform="translate(-18.115 -18.139)" fill="#6eff69"/>
    <path id="Path_1861" data-name="Path 1861" d="M116.952,94.382h3.571v22.868h4.63V94.371h4.81V92.866H115.7c-.156,1.516-.156,1.516,1.25,1.516" transform="translate(-22.853 -18.353)" fill="#6eff69"/>
    <path id="Path_1862" data-name="Path 1862" d="M138.086,117.323c1.257,0,2.446,0,3.636,0,.267,0,.534-.037.831-.059V92.805h-4.468Z" transform="translate(-27.29 -18.341)" fill="#6eff69"/>
    <path id="Path_1863" data-name="Path 1863" d="M240.309,104.883a36.594,36.594,0,0,0-4.078-2.142c-1.112-.57-2.281-1.048-3.332-1.711a3.338,3.338,0,0,1-1.411-3.659,3.744,3.744,0,0,1,2.487-3.156,5.02,5.02,0,0,1,5.919,2.24c.606.939.592.917,1.577.327.465-.278.534-.5.237-.983a8.488,8.488,0,0,0-8.111-3.693c-3,.441-5.269,1.87-6.366,4.784a6.34,6.34,0,0,0,2.957,8.073c.837.431,1.709.8,2.576,1.167a14.757,14.757,0,0,1,4,2.052,4.348,4.348,0,0,1-.582,7.057,5.042,5.042,0,0,1-6.2-1c-.4-.436-.749-.924-1.167-1.445-.418.3-.775.6-1.171.83-.453.266-.437.515-.148.916a7.622,7.622,0,0,0,5.352,3.118,9.141,9.141,0,0,0,7.479-1.827c3.563-2.932,3.36-8.639-.013-10.948" transform="translate(-44.818 -18.187)" fill="#6eff69"/>
    <path id="Path_1864" data-name="Path 1864" d="M219.3,115.724c-2.922-.013-5.844-.018-8.766,0-.481,0-.624-.14-.621-.621q.03-4.486,0-8.971c0-.5.121-.66.642-.654,2.554.026,5.109.016,7.663.01,1.147,0,.952.125,1.011-.973.03-.559-.183-.671-.694-.667-2.631.022-5.263.01-7.895.008-.224,0-.449-.02-.716-.034v-2.55c0-2.084.01-4.168-.009-6.25,0-.431.128-.6.561-.56.327.028.658,0,.987,0,2.573,0,5.147-.009,7.72.009.455,0,.653-.136.592-.595a1.321,1.321,0,0,1,0-.347c.065-.489-.106-.671-.636-.668-4.412.02-8.824.01-13.236.013-.186,0-.371.026-.573.04v24.31a1.035,1.035,0,0,0,.181.047q7,.006,13.99.006c.111,0,.315-.031.318-.063a7.111,7.111,0,0,0,.059-1.3c-.007-.083-.375-.192-.577-.193" transform="translate(-40.578 -18.353)" fill="#6eff69"/>
  </g>
</svg>
