<?xml version="1.0" encoding="utf-8"?>
<!-- Generator: Adobe Illustrator 27.0.0, SVG Export Plug-In . SVG Version: 6.00 Build 0)  -->
<svg version="1.1" id="Group_819" xmlns="http://www.w3.org/2000/svg" xmlns:xlink="http://www.w3.org/1999/xlink" x="0px" y="0px"
	 viewBox="0 0 246 166.3" style="enable-background:new 0 0 246 166.3;" xml:space="preserve">
<style type="text/css">
	.st0{fill:#ff3e51;}
</style>
<g>
	<path class="st0" d="M173.1,0.8h-22H95.6h-22C33.6,0.8,1,33.4,1,73.3c0,40,32.5,72.5,72.5,72.5h22h55.5h22
		c40,0,72.5-32.5,72.5-72.5C245.6,33.4,213.1,0.8,173.1,0.8z M7.4,73.3c0-33.4,24.9-61,57-65.5C40,19.5,23.1,44.5,23.1,73.3
		c0,28.9,16.9,53.8,41.4,65.5C32.3,134.4,7.4,106.7,7.4,73.3z M95.6,139.5c-36.5,0-66.1-29.7-66.1-66.1c0-36.5,29.7-66.1,66.1-66.1
		h55.5c36.5,0,66.1,29.7,66.1,66.1c0,36.5-29.7,66.1-66.1,66.1H95.6z M182.2,138.8c24.5-11.7,41.4-36.6,41.4-65.5
		c0-28.9-16.9-53.8-41.4-65.5c32.2,4.4,57,32.1,57,65.5C239.2,106.7,214.4,134.4,182.2,138.8z"/>
	<polygon class="st0" points="112.1,160.2 108.4,160.2 108.4,156.5 106.2,156.5 106.2,166.2 108.4,166.2 108.4,162.3 112.1,162.3 
		112.1,166.2 114.4,166.2 114.4,156.5 112.1,156.5 	"/>
	<path class="st0" d="M119.4,156.5h-4.5v9.6h2.2v-3.3h2.3c2.3,0,3.8-1.1,3.8-3.2C123.1,157.6,121.6,156.5,119.4,156.5z M119.3,161.1
		h-2.2v-2.7h2.2c1.1,0,1.6,0.6,1.6,1.3C120.9,160.5,120.4,161.1,119.3,161.1z"/>
	<path class="st0" d="M128.1,156.5h-4.5v9.6h2.2v-3.3h2.3c2.3,0,3.8-1.1,3.8-3.2C131.8,157.6,130.4,156.5,128.1,156.5z M128,161.1
		h-2.2v-2.7h2.2c1.1,0,1.6,0.6,1.6,1.3C129.6,160.5,129.2,161.1,128,161.1z"/>
	<polygon class="st0" points="138.2,160.2 134.5,160.2 134.5,156.5 132.3,156.5 132.3,166.2 134.5,166.2 134.5,162.3 138.2,162.3 
		138.2,166.2 140.5,166.2 140.5,156.5 138.2,156.5 	"/>
	<path class="st0" d="M61,62.1h4c2.2,0,4.4-0.7,6-2.2c1.5-1.5,2.3-3.6,2.3-5.7c0-2.2-0.8-4.2-2.3-5.7c-1.6-1.5-3.7-2.2-6-2.2h-8.1
		v24.5H61V62.1z M61,50.1h4c1.1,0,2.2,0.4,3,1.2c0.8,0.8,1.2,1.9,1.2,2.9c0,1.1-0.4,2.2-1.2,3c-0.8,0.8-1.9,1.2-3,1.2h-4V50.1z"/>
	<path class="st0" d="M92.3,70.7l-8.6-24.5h-4.4l-8.6,24.5h4.1l1.9-5.4H86l1.9,5.4H92.3z M78.1,61.5l3.3-9.5l3.3,9.5H78.1z"/>
	<polygon class="st0" points="100.7,70.7 108.7,46.2 104.5,46.2 98.6,64.4 92.6,46.2 88.3,46.2 96.3,70.7 	"/>
	<rect x="110.5" y="46.2" class="st0" width="4.1" height="24.5"/>
	<polygon class="st0" points="132.7,66.9 122.4,66.9 122.4,46.2 118.2,46.2 118.2,70.7 132.7,70.7 	"/>
	<rect x="135.4" y="46.2" class="st0" width="4.1" height="24.5"/>
	<path class="st0" d="M153,71.6h1.5c3.2,0,6.2-1.3,8.3-3.7c2.3-2.6,3.2-6,3.2-9.4c0-3.5-0.9-6.8-3.2-9.4c-2.1-2.4-5.1-3.7-8.3-3.7
		H153c-3.2,0-6.2,1.3-8.3,3.7c-2.3,2.6-3.2,6-3.2,9.4c0,3.5,0.9,6.8,3.2,9.4C146.8,70.3,149.9,71.6,153,71.6z M147.7,51.8
		c1.3-1.6,3.2-2.6,5.3-2.6h1.5c2.1,0,4,1,5.3,2.6c1.5,1.9,2.1,4.3,2.1,6.7c0,2.4-0.6,4.8-2.1,6.7c-1.3,1.6-3.2,2.6-5.3,2.6H153
		c-2.1,0-4-1-5.3-2.6c-1.5-1.9-2.1-4.3-2.1-6.7C145.6,56.1,146.2,53.6,147.7,51.8z"/>
	<polygon class="st0" points="172.4,53.4 183.3,70.7 187.7,70.7 187.7,46.2 183.6,46.2 183.6,63.5 172.6,46.2 168.2,46.2 
		168.2,70.7 172.4,70.7 	"/>
	<path class="st0" d="M56.9,74.4h-8.1v24.5h4.1v-8.6h4c2.2,0,4.4-0.7,6-2.2c1.5-1.5,2.3-3.6,2.3-5.7c0-2.2-0.8-4.2-2.3-5.7
		C61.2,75,59.1,74.4,56.9,74.4z M59.9,85.3c-0.8,0.8-1.9,1.2-3,1.2h-4v-8.2h4c1.1,0,2.2,0.4,3,1.2c0.8,0.8,1.2,1.9,1.2,2.9
		C61,83.4,60.7,84.5,59.9,85.3z"/>
	<path class="st0" d="M81.6,87.2c1.5-1.4,2.3-3.4,2.3-5.4c0-2-0.8-4-2.3-5.4c-1.6-1.5-3.8-2.1-6-2.1h-8.2v24.5h4.1v-9.5h3.5l4.9,9.5
		h4.8l-5.5-10.2C80.1,88.3,80.9,87.8,81.6,87.2z M75.6,85.5h-4v-7.3h4c1.1,0,2.2,0.3,3,1c0.8,0.6,1.2,1.6,1.2,2.6c0,1-0.4,2-1.2,2.6
		C77.8,85.2,76.7,85.5,75.6,85.5z"/>
	<polygon class="st0" points="86.5,98.8 101,98.8 101,95 90.7,95 90.7,88 99,88 99,84.2 90.7,84.2 90.7,78.2 101,78.2 101,74.4 
		86.5,74.4 	"/>
	<path class="st0" d="M115.6,85.6l-5.1-2.3c-1.2-0.4-2.2-1.2-2.2-2.3c0-1,0.2-1.9,0.8-2.7c0.5-0.6,1.3-1,2.2-1h0.6
		c1.7,0,2.8,1.6,2.9,3.2l4.1-0.6c-0.2-1.6-0.8-3.2-1.9-4.4c-1.3-1.4-3.2-2.1-5.1-2.1h-0.6c-1.9,0-3.9,0.6-5.2,2
		c-1.4,1.5-1.9,3.5-1.9,5.5c0,2.9,2.2,5.2,5,6.2l5.1,2.3c1.1,0.4,1.8,1.4,1.8,2.6c0,1.1-0.3,2.1-1.1,2.8c-0.8,0.8-2,1-3.1,1h-0.8
		c-1.1,0-2.2-0.3-3-1.1c-0.6-0.6-1-1.4-1.1-2.3l-4.1,0.5c0.2,1.7,1,3.3,2.2,4.5c1.6,1.5,3.8,2.2,6,2.2h0.8c2.2,0,4.5-0.5,6.1-2
		c1.5-1.4,2.2-3.5,2.2-5.6C120.2,89.2,118.4,86.6,115.6,85.6z"/>
	<polygon class="st0" points="122.5,98.8 137,98.8 137,95 126.6,95 126.6,88 134.9,88 134.9,84.2 126.6,84.2 126.6,78.2 137,78.2 
		137,74.4 122.5,74.4 	"/>
	<polygon class="st0" points="159.4,98.8 159.4,74.4 155.3,74.4 155.3,91.7 144.4,74.4 140,74.4 140,98.8 144.1,98.8 144.1,81.6 
		155,98.8 	"/>
	<polygon class="st0" points="161.2,78.2 168.3,78.2 168.3,98.8 172.4,98.8 172.4,78.2 179.4,78.2 179.4,74.4 161.2,74.4 	"/>
	<path class="st0" d="M180.7,81c0,2.9,2.2,5.2,5,6.2l5.1,2.3c1.1,0.4,1.8,1.4,1.8,2.6c0,1.1-0.3,2.1-1.1,2.8c-0.8,0.8-2,1-3.1,1
		h-0.8c-1.1,0-2.2-0.3-3-1.1c-0.6-0.6-1-1.4-1.1-2.3l-4.1,0.5c0.2,1.7,1,3.3,2.2,4.5c1.6,1.5,3.8,2.2,6,2.2h0.8c2.2,0,4.5-0.5,6.1-2
		c1.5-1.4,2.2-3.5,2.2-5.6c0-2.9-1.9-5.5-4.6-6.4l-5.1-2.3c-1.2-0.4-2.2-1.2-2.2-2.3c0-1,0.2-1.9,0.8-2.7c0.5-0.6,1.3-1,2.2-1h0.6
		c1.7,0,2.8,1.6,2.9,3.2l4.1-0.6c-0.2-1.6-0.8-3.2-1.9-4.4c-1.3-1.4-3.2-2.1-5.1-2.1h-0.6c-1.9,0-3.9,0.6-5.2,2
		C181.2,77,180.7,79,180.7,81z"/>
</g>
</svg>
