<svg id="Group_819" data-name="Group 819" xmlns="http://www.w3.org/2000/svg" xmlns:xlink="http://www.w3.org/1999/xlink" width="246" height="166.32" viewBox="0 0 246 166.32">
  <defs>
    <clipPath id="clip-path">
      <rect id="Rectangle_919" data-name="Rectangle 919" width="246" height="166.32" fill="#e5e3bf"/>
    </clipPath>
  </defs>
  <g id="Group_819-2" data-name="Group 819" clip-path="url(#clip-path)">
    <path id="Path_1826" data-name="Path 1826" d="M173.067,145.866H72.932A72.933,72.933,0,0,1,72.932,0H173.067a72.933,72.933,0,1,1,0,145.866M72.932,6.419a66.514,66.514,0,0,0,0,133.028H173.067a66.514,66.514,0,1,0,0-133.028Z" fill="#e5e3bf"/>
    <path id="Path_1827" data-name="Path 1827" d="M156.379,145.866H100.53A72.933,72.933,0,0,1,100.53,0h55.848a72.933,72.933,0,0,1,0,145.866M100.53,6.419a66.514,66.514,0,0,0,0,133.028h55.848a66.514,66.514,0,0,0,0-133.028Z" transform="translate(-5.454)" fill="#e5e3bf"/>
    <path id="Path_1828" data-name="Path 1828" d="M131.8,195.216h2.241v3.708h3.736v-3.708h2.241V204.9h-2.241V201h-3.736v3.9H131.8Z" transform="translate(-26.048 -38.58)" fill="#e5e3bf"/>
    <path id="Path_1829" data-name="Path 1829" d="M142.683,195.217h4.524c2.3,0,3.791,1.065,3.791,3.2s-1.495,3.2-3.791,3.2h-2.283V204.9h-2.241Zm2.241,4.537h2.227c1.148,0,1.6-.567,1.6-1.342s-.457-1.342-1.6-1.342h-2.227Z" transform="translate(-28.198 -38.58)" fill="#e5e3bf"/>
    <path id="Path_1830" data-name="Path 1830" d="M153.614,195.217h4.524c2.3,0,3.79,1.065,3.79,3.2s-1.494,3.2-3.79,3.2h-2.283V204.9h-2.241Zm2.241,4.537h2.227c1.148,0,1.6-.567,1.6-1.342s-.457-1.342-1.6-1.342h-2.227Z" transform="translate(-30.358 -38.58)" fill="#e5e3bf"/>
    <path id="Path_1831" data-name="Path 1831" d="M164.545,195.216h2.241v3.708h3.736v-3.708h2.241V204.9h-2.241V201h-3.736v3.9h-2.241Z" transform="translate(-32.519 -38.58)" fill="#e5e3bf"/>
    <path id="Path_1832" data-name="Path 1832" d="M85.167,63.707c.195-.1.374-.227.57-.324C88.52,62,92.43,63.1,92.168,67.246c-.189,2.966-.072,5.954-.014,8.93A2.046,2.046,0,0,1,91.23,78.1a9.271,9.271,0,0,0-.952.864l.144.156h23.366l.1-.205a12.147,12.147,0,0,0-1.43-.985,1.682,1.682,0,0,1-.96-1.765c.056-8.441.069-16.883.094-25.324,0-.371,0-.741,0-1.267-2.1.688-4.061,1.326-6.01,1.993-.039.014-.022.5.075.547a15.782,15.782,0,0,0,1.747.688.737.737,0,0,1,.587.821c-.017,7.7-.009,15.409-.026,23.113a1.111,1.111,0,0,1-.338.753c-.515.441-1.092.811-1.671,1.228a11.45,11.45,0,0,0-1.243-.814,1.538,1.538,0,0,1-.89-1.631c.045-5,.033-10,.039-15V60.214l-6.279,2.451c.007.1.015.209.022.315.668.266,1.325.568,2.008.787a.82.82,0,0,1,.648.94c-.023,3.961,0,7.923-.036,11.884a1.55,1.55,0,0,1-.526,1.059c-1.331,1.056-1.351,1.032-2.874.221a2.6,2.6,0,0,0-.364-.187c-.608-.209-.762-.617-.757-1.255.029-3.66.048-7.322-.012-10.982-.055-3.364-1.732-4.955-5.066-4.94-2.134.01-3.928,1.023-5.738,1.979-.254.135-.509.268-.871.459V49.582l-5.8,2.065c0,.105.006.209.008.314a8.89,8.89,0,0,0,1.22.592c.8.251,1.029.713,1.025,1.561-.04,7.158-.056,14.316.009,21.473a2.556,2.556,0,0,1-1.412,2.7,5.878,5.878,0,0,0-.977.838h8.181l.109-.216c-.588-.4-1.159-.834-1.769-1.2a1.211,1.211,0,0,1-.634-1.2c.023-3.579.055-7.159-.015-10.737a2,2,0,0,1,1.2-2.076" transform="translate(-15.433 -9.797)" fill="#e5e3bf"/>
    <path id="Path_1833" data-name="Path 1833" d="M185.834,65.8a12.486,12.486,0,0,0,1.448.56c.673.177.847.56.844,1.233q-.035,10.9,0,21.805a1.553,1.553,0,0,1-.814,1.532A18.72,18.72,0,0,0,185.7,92.15a5.474,5.474,0,0,0,.814.174c2.9.007,5.8.011,8.7-.006.2,0,.392-.181.587-.278a1.861,1.861,0,0,0-.449-.388c-1.237-.5-2.483-.979-3.757-1.476V81.74a12.411,12.411,0,0,0,5.93.274,9.227,9.227,0,0,0,6.319-3.855,10.931,10.931,0,0,0,1.549-7.989c-.741-5.258-5.707-8.561-10.647-6.214-1.025.487-2.047.982-3.181,1.527v-2.4c-.142-.039-.2-.079-.246-.063-1.855.713-3.716,1.414-5.556,2.162-.416.169-.327.453.072.613m6.376.756a5.581,5.581,0,0,1,7.835,1.293c1.136,1.618,1.63,3.283,1.618,6.277a8.43,8.43,0,0,1-1.415,4.4,4.951,4.951,0,0,1-5.4,2.165,4.138,4.138,0,0,1-3.066-3.829c-.161-1.9-.14-3.811-.177-5.719-.022-1.119.032-2.241-.02-3.359a1.314,1.314,0,0,1,.625-1.228" transform="translate(-36.658 -12.455)" fill="#e5e3bf"/>
    <path id="Path_1834" data-name="Path 1834" d="M228.029,76.493c.028-3.66.056-7.32-.01-10.979-.063-3.466-1.724-5.039-5.167-5-2.067.022-3.821,1-5.579,1.94-.276.148-.556.288-.932.482V49.577l-5.829,2.085.014.288a8.075,8.075,0,0,0,1.135.551c.876.272,1.151.775,1.144,1.727-.051,7.046-.073,14.094.01,21.139a2.869,2.869,0,0,1-1.581,3.028c-.258.129-.437.416-.751.726H218.6l.1-.219c-.547-.372-1.072-.786-1.649-1.1a1.358,1.358,0,0,1-.746-1.381c.031-3.414.1-6.831-.027-10.241A2.539,2.539,0,0,1,218,63.412a9.6,9.6,0,0,1,.91-.359c2.654-.83,5.753.5,5.568,4.042-.162,3.132-.048,6.28-.021,9.421a1.437,1.437,0,0,1-.6,1.32c-.454.334-.853.742-1.276,1.117l.144.2h8.146l.125-.257c-.745-.408-1.472-.851-2.239-1.212a1.118,1.118,0,0,1-.725-1.192" transform="translate(-41.598 -9.798)" fill="#e5e3bf"/>
    <path id="Path_1835" data-name="Path 1835" d="M74.2,59.537a6.945,6.945,0,0,0-6.576-6.41c-4.363-.419-8.774-.351-13.165-.5-.05.119-.1.237-.15.355a3.092,3.092,0,0,0,.494.5c.737.47,1.509.885,2.227,1.38a1.085,1.085,0,0,1,.434.751q.035,10.7,0,21.394a1.1,1.1,0,0,1-.434.765c-.718.5-1.493.906-2.231,1.374a3.764,3.764,0,0,0-.558.579h11.1a1.029,1.029,0,0,0-.534-.578c-.907-.443-1.8-.913-2.738-1.289a1.06,1.06,0,0,1-.735-1.176q.028-10.779.014-21.558c0-.289.03-.578.05-.94.953,0,1.821-.026,2.686,0a5.974,5.974,0,0,1,6.083,6.308c0,2.056-.369,3.966-1.987,5.422a7.807,7.807,0,0,1-3.736,1.737c-.465.1-.632.374-.5.746a.761.761,0,0,0,.628.376,25.535,25.535,0,0,0,4.464-.883A7.683,7.683,0,0,0,74.2,59.537" transform="translate(-10.72 -10.402)" fill="#e5e3bf"/>
    <path id="Path_1836" data-name="Path 1836" d="M141.11,70.891c-.791-5.316-5.061-8.362-10.463-7.629-5,.679-8.08,4.451-8.066,9.895.113,3.168,1.209,6.315,4.6,8.049a9.4,9.4,0,0,0,10.235-.611c3.327-2.356,4.28-5.8,3.7-9.7m-4.675,7.251c-1.53,3.625-5.858,3.64-7.915.524a12.61,12.61,0,0,1-1.869-7.017l-.235-.059a35.005,35.005,0,0,1,1.08-4.235c1.516-3.913,5.981-3.2,7.739-.8a10.617,10.617,0,0,1,1.894,4.748,12.347,12.347,0,0,1-.693,6.833" transform="translate(-24.225 -12.481)" fill="#e5e3bf"/>
    <path id="Path_1837" data-name="Path 1837" d="M171.691,82.355a9.233,9.233,0,0,0,9.474-9.578c.016-5.747-3.873-9.7-9.235-9.581a9.122,9.122,0,0,0-9.463,9.534c.01,5.752,3.73,9.634,9.225,9.625m-4.339-15.036c1.63-3.779,5.892-3.169,7.674-.868a10.574,10.574,0,0,1,2.056,5.355c.078.649.111,1.3.164,1.956l.2.061a43.127,43.127,0,0,1-1.2,4.375c-1.35,3.512-5.672,3.631-7.784.567a11.537,11.537,0,0,1-1.893-5.84,11.682,11.682,0,0,1,.778-5.607" transform="translate(-32.108 -12.489)" fill="#e5e3bf"/>
    <path id="Path_1838" data-name="Path 1838" d="M252.1,64.054h-6.855a4.3,4.3,0,0,0,.492.568,14.069,14.069,0,0,0,1.476,1.031c.543.307.58.643.366,1.2-.668,1.729-1.272,3.482-1.906,5.224-.7,1.91-1.4,3.817-2.178,5.95L239,65.874l2.681-1.581-.092-.211h-8.625l-.091.218c.457.307.94.583,1.364.931a2.863,2.863,0,0,1,.9.988q3.181,7.888,6.278,15.81a1.6,1.6,0,0,1-.015,1.063c-.678,1.755-1.441,3.476-2.105,5.235-.281.745-.559,1.074-1.46.865a1.85,1.85,0,0,0-2.065.842,1.914,1.914,0,0,0,1.978,2.895,2.67,2.67,0,0,0,2.46-2.051c2.971-7.662,5.982-15.308,8.908-22.987a5.357,5.357,0,0,1,2.33-3,5.2,5.2,0,0,0,.78-.678c-.041-.053-.081-.107-.121-.16" transform="translate(-46.022 -12.659)" fill="#e5e3bf"/>
    <path id="Path_1839" data-name="Path 1839" d="M147.692,81.574a10.761,10.761,0,0,0,6.744.464,5.4,5.4,0,0,0,4.149-4.192,4.628,4.628,0,0,0-2.317-5.231c-1.087-.68-2.2-1.315-3.276-2.017a11.224,11.224,0,0,1-1.944-1.487,2.673,2.673,0,0,1,.546-4.261,3.8,3.8,0,0,1,4.833,1.29c.38.622.583,1.348.925,2a.971.971,0,0,0,.616.372c.091.02.356-.251.356-.39,0-1.174-.022-2.349-.1-3.52a.9.9,0,0,0-.479-.637,9.678,9.678,0,0,0-7.562-.1A4.77,4.77,0,0,0,148.8,72.03a18.663,18.663,0,0,0,2.247,1.635c1.175.8,2.442,1.472,3.539,2.36a2.767,2.767,0,0,1-.773,4.7,4.022,4.022,0,0,1-5.069-1.6,13.313,13.313,0,0,1-.871-1.755c-.222-.634-.538-.916-1.342-.627.146,1.28.328,2.542.417,3.811a1,1,0,0,0,.742,1.013" transform="translate(-28.959 -12.478)" fill="#e5e3bf"/>
    <path id="Path_1840" data-name="Path 1840" d="M107.448,54.745a2.212,2.212,0,1,0-2.272-2.186,2.191,2.191,0,0,0,2.272,2.186" transform="translate(-20.786 -9.945)" fill="#e5e3bf"/>
    <path id="Path_1841" data-name="Path 1841" d="M206.522,117.882a24.937,24.937,0,0,0,.026-3.194c0-2.213.044-4.428-.032-6.64-.116-3.35-1.733-4.842-5.073-4.85-2.178-.006-3.977,1.037-5.8,2.023-.4.213-.776.455-1.2.708-.914-2.117-2.568-2.746-4.619-2.734a11.365,11.365,0,0,0-5.028,1.561c-.527.264-1.041.554-1.7.9v-2.752l-6.2,2.44c0,.111,0,.221.008.331.692.272,1.374.569,2.077.807a.746.746,0,0,1,.585.827c-.015,4.045,0,8.089-.026,12.133a1.177,1.177,0,0,1-.4.8c-1.639,1.322-1.661,1.329-3.387.082a1.4,1.4,0,0,1-.53-.964c-.014-7.9.007-15.795.021-23.692,0-1.082,0-2.165,0-3.4l-6.275,2.088.024.326c.621.248,1.228.538,1.866.731a1,1,0,0,1,.812,1.163c-.03,7.05-.081,14.1.026,21.15.026,1.7-.362,2.881-1.924,3.584-.049.022-.1.038-.185.069a10.316,10.316,0,0,0-1.212-.792,1.526,1.526,0,0,1-.875-1.636c.042-5,.028-10,.033-15v-1.037l-6.283,2.454c.01.1.02.208.031.312.671.266,1.33.569,2.016.785.507.16.639.428.636.944-.023,3.688-.071,7.379.022,11.066a2.339,2.339,0,0,1-1.288,2.436,6.673,6.673,0,0,0-.946.743l.126.173h23.526c.034-.067.067-.136.1-.2-.586-.408-1.152-.847-1.764-1.212a1.209,1.209,0,0,1-.631-1.2c.022-3.552.068-7.106-.022-10.656a2.144,2.144,0,0,1,1.288-2.2c.193-.1.376-.227.573-.319,2.812-1.311,6.589-.222,6.388,3.9-.137,2.808-.084,5.63,0,8.442a2.337,2.337,0,0,1-1.294,2.519,5.252,5.252,0,0,0-.924.748l.14.17h7.858c.039-.077.076-.154.115-.23-.589-.4-1.159-.832-1.772-1.192a1.132,1.132,0,0,1-.6-1.135c.023-3.47.1-6.945-.031-10.41a2.525,2.525,0,0,1,1.731-2.755c.275-.116.551-.237.834-.33,2.628-.866,5.841.436,5.627,4.051-.166,2.8-.111,5.63,0,8.44a2.541,2.541,0,0,1-1.435,2.769,3.858,3.858,0,0,0-.764.663l.133.169h7.846l.109-.2a2.91,2.91,0,0,0-.641-.53,2.728,2.728,0,0,1-1.725-3.25" transform="translate(-31.868 -18.235)" fill="#e5e3bf"/>
    <path id="Path_1842" data-name="Path 1842" d="M120.678,102.744a3.977,3.977,0,0,0,.875-.451l-.06-.209h-9.722c.663,1.019,1.816,1.017,2.584,1.722a35.656,35.656,0,0,1-4.514,9.337q-3.822-4.194-7.542-8.276c.861-.644,1.886-1.289,2.765-2.093a4.767,4.767,0,0,0-1.552-8.02A7.868,7.868,0,0,0,99.48,94.4a5.8,5.8,0,0,0-4.8,3.36,5.553,5.553,0,0,0,.743,6c.584.748,1.291,1.4,1.929,2.083-1.107.749-2.279,1.493-3.4,2.308a7.873,7.873,0,0,0-3.262,7.874c.564,4.642,4.407,7.18,8.815,6.86a10.814,10.814,0,0,0,6.759-3.314c.648-.615,1.342-1.181,2-1.758.737.942,1.515,2.035,2.394,3.039a6,6,0,0,0,9.844-.659c.32-.47.369-.821-.165-1.193-.325.283-.643.577-.978.849a3.293,3.293,0,0,1-4.724-.192c-1.448-1.581-2.738-3.307-4.07-4.937,1.679-2.661,3.318-5.178,4.873-7.745a8.267,8.267,0,0,1,5.237-4.235m-22.2-6.513a2.891,2.891,0,0,1,2.994-.492,2.987,2.987,0,0,1,1.874,2.736,6.227,6.227,0,0,1,.006.9,5.238,5.238,0,0,1-1.886,4.411c-.183.151-.614.278-.744.177-1.477-1.147-2.886-2.377-3.214-4.36a3.419,3.419,0,0,1,.969-3.372m.166,23.552c-4.6-1.426-6.043-7.61-2.565-11.082a13.593,13.593,0,0,1,2.065-1.6.885.885,0,0,1,.825.049,47.934,47.934,0,0,1,8.26,9.06.482.482,0,0,1,.043.152c-2.089,2.944-5.634,4.35-8.628,3.421" transform="translate(-17.906 -18.634)" fill="#e5e3bf"/>
    <path id="Path_1843" data-name="Path 1843" d="M155.686,95.466c-2.706-.009-5.413.025-8.119.033-3.172.008-6.344,0-9.515.011a2.708,2.708,0,0,0-.722.215,2.652,2.652,0,0,0,.564.575c.864.463,1.772.85,2.621,1.337a1.106,1.106,0,0,1,.5.793q.04,10.611,0,21.221a1.239,1.239,0,0,1-.554.853c-.81.5-1.679.91-2.514,1.373a6.148,6.148,0,0,0-.712.574h11.612l.072-.192a7.008,7.008,0,0,0-.626-.385c-.933-.452-1.861-.916-2.814-1.322a.956.956,0,0,1-.661-1.05c.03-3.113.014-6.227.016-9.34,0-.234.027-.469.035-.6,2.034,0,4,0,5.961,0,.847,0,1.916-.275,2.478.132.593.431.74,1.515,1.006,2.337.194.6.5.8,1.131.564v-8.025c-.639-.222-.986-.035-1.126.581a10.066,10.066,0,0,1-.338,1.009c-.494,1.439-.493,1.49-1.969,1.517-2.369.043-4.74.012-7.11.012V97.3c2.828,0,5.586-.014,8.343.023a1.053,1.053,0,0,1,.708.518q.818,1.466,1.526,2.991c.247.533.579.665.97.515,0-1.886.015-3.709-.033-5.531,0-.128-.473-.35-.727-.351" transform="translate(-27.121 -18.866)" fill="#e5e3bf"/>
    <path id="Path_1844" data-name="Path 1844" d="M164.074,95.217a2.256,2.256,0,1,0,2.253-2.2,2.181,2.181,0,0,0-2.253,2.2" transform="translate(-32.426 -18.383)" fill="#e5e3bf"/>
  </g>
</svg>
