<svg id="Group_1005" data-name="Group 1005" xmlns="http://www.w3.org/2000/svg" xmlns:xlink="http://www.w3.org/1999/xlink" width="306.591" height="207.286" viewBox="0 0 306.591 207.286">
  <defs>
    <clipPath id="clip-path">
      <rect id="Rectangle_1038" data-name="Rectangle 1038" width="306.591" height="207.286" fill="#a0f0cb"/>
    </clipPath>
  </defs>
  <g id="Group_1004" data-name="Group 1004" clip-path="url(#clip-path)">
    <path id="Path_2030" data-name="Path 2030" d="M215.694,181.793H90.9A90.9,90.9,0,0,1,90.9,0h124.8a90.9,90.9,0,1,1,0,181.793M90.9,8a82.9,82.9,0,0,0,0,165.793h124.8A82.9,82.9,0,1,0,215.694,8Z" fill="#a0f0cb"/>
    <path id="Path_2031" data-name="Path 2031" d="M188.1,181.793h-69.6A90.9,90.9,0,0,1,118.494,0h69.6a90.9,90.9,0,0,1,0,181.793M118.494,8a82.9,82.9,0,0,0,0,165.793h69.6A82.9,82.9,0,0,0,188.1,8Z" fill="#a0f0cb"/>
    <path id="Path_2032" data-name="Path 2032" d="M131.8,195.216H134.6v4.621h4.656v-4.621h2.793v12.07h-2.793v-4.863H134.6v4.863H131.8Z" fill="#a0f0cb"/>
    <path id="Path_2033" data-name="Path 2033" d="M142.683,195.217h5.638c2.862,0,4.725,1.327,4.725,3.982s-1.863,3.983-4.725,3.983h-2.845v4.1h-2.793Zm2.793,5.655h2.776c1.431,0,2-.707,2-1.673s-.569-1.672-2-1.672h-2.776Z" fill="#a0f0cb"/>
    <path id="Path_2034" data-name="Path 2034" d="M153.614,195.217h5.638c2.862,0,4.724,1.327,4.724,3.982s-1.862,3.983-4.724,3.983h-2.845v4.1h-2.793Zm2.793,5.655h2.776c1.431,0,2-.707,2-1.673s-.569-1.672-2-1.672h-2.776Z" fill="#a0f0cb"/>
    <path id="Path_2035" data-name="Path 2035" d="M164.545,195.216h2.793v4.621h4.656v-4.621h2.793v12.07h-2.793v-4.863h-4.656v4.863h-2.793Z" fill="#a0f0cb"/>
    <path id="Path_2036" data-name="Path 2036" d="M100.2,79.26c.813-1.87,3.577-5.773,7.155-5.773h.325c2.928,0,4.473,1.87,3.9,5.447L109.142,94.3h-8.294l1.626-10.246c.244-1.463-.162-2.195-1.057-2.195-1.3,0-1.545.732-1.788,2.276l-5.286,33.339H85.887L92.8,73.73h8.375Z" fill="#a0f0cb"/>
    <path id="Path_2037" data-name="Path 2037" d="M125.567,73.08c6.262,0,9.6,3.984,8.538,10.734L132.072,96.58H119.388l-1.627,10.245c-.243,1.708.163,3.09,2.033,3.09,1.546,0,2.115-1.3,2.439-3.171l1.14-7.237h8.212l-1.22,7.806c-1.219,7.481-4.553,10.9-10.408,10.9h-2.033c-5.285,0-9.351-3.578-8.293-10.977l3.74-23.663c.895-6.017,3.415-10.489,10.163-10.489Zm-5.041,16.344h4.717l.893-5.529c.326-2.033-.08-3.5-2.033-3.5s-2.357,1.464-2.682,3.5Z" fill="#a0f0cb"/>
    <path id="Path_2038" data-name="Path 2038" d="M146.14,117.477h-9.188V56.98h14.88c6.18,0,9.188,2.521,9.188,9.351V77.064c0,5.042-2.357,7.074-3.984,7.725,2.033.895,3.984,2.44,3.984,6.586V112.6a9.224,9.224,0,0,0,.895,4.473v.406h-9.107c-.406-.651-.9-1.707-.9-4.96V94.3c0-2.683-.487-3.822-3.415-3.822H146.14Zm0-35.615h2.439c2.522,0,3.334-1.627,3.334-4.31V69.1c0-2.6-.487-3.9-3.334-3.9H146.14Z" fill="#a0f0cb"/>
    <path id="Path_2039" data-name="Path 2039" d="M164.083,56.98h9.352v47.893c0,2.6.9,4.31,2.926,4.31,2.2,0,3.01-1.626,3.01-4.31V56.98h9.35V104.3c0,8.538-3.414,13.9-11.546,13.9h-1.626c-8.132,0-11.466-5.123-11.466-13.9Z" fill="#a0f0cb"/>
    <path id="Path_2040" data-name="Path 2040" d="M200.322,56.98l7.888,32.444V56.98h8.375v60.5H209.1l-8.783-34.8v34.8h-8.293V56.98Z" fill="#a0f0cb"/>
  </g>
</svg>
