<svg id="Group_982" data-name="Group 982" xmlns="http://www.w3.org/2000/svg" xmlns:xlink="http://www.w3.org/1999/xlink" width="246" height="166.32" viewBox="0 0 246 166.32">
  <defs>
    <clipPath id="clip-path">
      <rect id="Rectangle_929" data-name="Rectangle 929" width="246" height="166.32" fill="#b389ff"/>
    </clipPath>
  </defs>
  <g id="Group_841" data-name="Group 841" clip-path="url(#clip-path)">
    <path id="Path_1938" data-name="Path 1938" d="M173.067,145.866H72.932A72.933,72.933,0,0,1,72.932,0H173.067a72.933,72.933,0,1,1,0,145.866M72.932,6.419a66.514,66.514,0,0,0,0,133.028H173.067a66.514,66.514,0,1,0,0-133.028Z" fill="#b389ff"/>
    <path id="Path_1939" data-name="Path 1939" d="M156.379,145.866H100.53A72.933,72.933,0,0,1,100.53,0h55.848a72.933,72.933,0,0,1,0,145.866M100.53,6.419a66.514,66.514,0,0,0,0,133.028h55.848a66.514,66.514,0,0,0,0-133.028Z" transform="translate(-5.454)" fill="#b389ff"/>
    <path id="Path_1940" data-name="Path 1940" d="M91.043,78.914V49.529H86.365V44.8h14.571v4.727H96.257V78.914Z" transform="translate(-17.068 -8.854)" fill="#b389ff"/>
    <path id="Path_1941" data-name="Path 1941" d="M121.813,72.871c0,4.24-2.095,6.335-6.336,6.335h-2.534c-4.239,0-6.335-2.095-6.335-6.335V44.8h5.215V72.627a1.741,1.741,0,0,0,2,2h.828c1.316,0,1.95-.633,1.95-2V44.8h5.214Z" transform="translate(-21.069 -8.854)" fill="#b389ff"/>
    <path id="Path_1942" data-name="Path 1942" d="M138.959,44.8v4.727h-6.384v9.649h6.141V63.9h-6.141V74.187h6.482v4.727h-11.7V44.8Z" transform="translate(-25.17 -8.854)" fill="#b389ff"/>
    <path id="Path_1943" data-name="Path 1943" d="M158.854,67.244V72.8c0,4.24-2.095,6.335-6.336,6.335h-2.29c-4.24,0-6.287-2.095-6.287-6.287V65.636h5.068v7.017c0,1.316.634,1.95,2,1.95h.682c1.365,0,2-.634,2-1.95V67.975a3,3,0,0,0-1.462-2.778l-5.263-3.85a6.264,6.264,0,0,1-3.022-5.9V50.773c0-4.24,2.1-6.336,6.336-6.336h2.193q6.286,0,6.286,6.287v6.189H153.64V50.919a1.71,1.71,0,0,0-1.95-1.949h-.634a1.71,1.71,0,0,0-1.949,1.949v3.8A2.953,2.953,0,0,0,150.57,57.5l5.264,3.85a6.218,6.218,0,0,1,3.021,5.9" transform="translate(-28.447 -8.782)" fill="#b389ff"/>
    <path id="Path_1944" data-name="Path 1944" d="M164.835,44.8h7.846c5.068,0,7.456,2.436,7.456,7.456v19.2c0,5.02-2.388,7.456-7.456,7.456h-7.846Zm5.215,29.531h1.9c2.046,0,2.972-.975,2.972-3.021V52.4c0-2.047-.926-3.021-2.972-3.021h-1.9Z" transform="translate(-32.576 -8.854)" fill="#b389ff"/>
    <path id="Path_1945" data-name="Path 1945" d="M200.945,78.9h-5.166l-.682-5.36h-5.41l-.633,5.36H184.23l4.873-34.16h6.92Zm-10.672-9.99h4.24l-2.095-17.057Z" transform="translate(-36.409 -8.842)" fill="#b389ff"/>
    <path id="Path_1946" data-name="Path 1946" d="M212.073,44.8h5.02l-5.6,22.173V78.914h-5.214v-11.7l-5.6-22.417h5.361L209,59.178Z" transform="translate(-39.658 -8.854)" fill="#b389ff"/>
    <path id="Path_1947" data-name="Path 1947" d="M76.617,91.955H81.88l2.437,24.074,2.632-24.074h5.019L94.6,115.98l2.437-24.025h4.776l-4.143,34.112h-6.14l-2.291-20.419-2.29,20.419H80.759Z" transform="translate(-15.142 -18.173)" fill="#b389ff"/>
    <path id="Path_1948" data-name="Path 1948" d="M118.345,126.287h-2.778c-4.24,0-6.336-2.095-6.336-6.335V97.926c0-4.24,2.1-6.336,6.336-6.336h2.778c4.239,0,6.335,2.1,6.335,6.336v22.027c0,4.24-2.1,6.335-6.335,6.335m-.829-30.116h-1.072a1.741,1.741,0,0,0-2,2v21.54a1.741,1.741,0,0,0,2,2h1.072c1.316,0,1.949-.633,1.949-2V98.169c0-1.364-.633-2-1.949-2" transform="translate(-21.587 -18.101)" fill="#b389ff"/>
    <path id="Path_1949" data-name="Path 1949" d="M141.953,91.955h4.679v34.112h-5.654l-5.312-23,.049,23h-4.679V91.955h6.092l4.874,21.2Z" transform="translate(-25.896 -18.173)" fill="#b389ff"/>
    <path id="Path_1950" data-name="Path 1950" d="M152.738,91.955h7.846c5.068,0,7.456,2.436,7.456,7.456v19.2c0,5.02-2.388,7.456-7.456,7.456h-7.846Zm5.215,29.531h1.9c2.047,0,2.972-.975,2.972-3.021V99.557c0-2.047-.925-3.021-2.972-3.021h-1.9Z" transform="translate(-30.185 -18.173)" fill="#b389ff"/>
    <path id="Path_1951" data-name="Path 1951" d="M185.149,91.955v4.727h-6.384v9.649h6.141v4.727h-6.141V121.34h6.482v4.727h-11.7V91.955Z" transform="translate(-34.299 -18.173)" fill="#b389ff"/>
    <path id="Path_1952" data-name="Path 1952" d="M205.336,114.47v11.6h-5.215v-11.5c0-1.511-.682-2.193-2.193-2.193H195.59v13.693h-5.215V91.955h8.577c4.239,0,6.335,2.1,6.335,6.335v6.433c0,3.021-1.072,4.483-2.973,5.263,2.145.585,3.022,1.9,3.022,4.484m-7.213-17.885H195.59v11.257h2.339c1.462,0,2.144-.683,2.144-2.1V98.534a1.71,1.71,0,0,0-1.949-1.949" transform="translate(-37.623 -18.173)" fill="#b389ff"/>
    <path id="Path_1953" data-name="Path 1953" d="M226.3,114.4v5.556c0,4.24-2.095,6.335-6.336,6.335h-2.29c-4.24,0-6.287-2.095-6.287-6.287v-7.212h5.068v7.017c0,1.316.634,1.95,2,1.95h.682c1.365,0,2-.634,2-1.95v-4.678a3,3,0,0,0-1.462-2.778l-5.263-3.85a6.264,6.264,0,0,1-3.022-5.9V97.926c0-4.24,2.1-6.336,6.336-6.336h2.193q6.286,0,6.286,6.287v6.189h-5.116V98.072a1.71,1.71,0,0,0-1.95-1.949H218.5a1.71,1.71,0,0,0-1.949,1.949v3.8a2.953,2.953,0,0,0,1.462,2.778l5.264,3.85a6.218,6.218,0,0,1,3.021,5.9" transform="translate(-41.776 -18.101)" fill="#b389ff"/>
    <path id="Path_1954" data-name="Path 1954" d="M131.8,195.216h2.241v3.708h3.736v-3.708h2.241V204.9h-2.241V201h-3.736v3.9H131.8Z" transform="translate(-26.048 -38.58)" fill="#b389ff"/>
    <path id="Path_1955" data-name="Path 1955" d="M142.683,195.217h4.524c2.3,0,3.791,1.065,3.791,3.2s-1.495,3.2-3.791,3.2h-2.283V204.9h-2.241Zm2.241,4.537h2.227c1.148,0,1.6-.567,1.6-1.342s-.457-1.342-1.6-1.342h-2.227Z" transform="translate(-28.198 -38.58)" fill="#b389ff"/>
    <path id="Path_1956" data-name="Path 1956" d="M153.614,195.217h4.524c2.3,0,3.79,1.065,3.79,3.2s-1.494,3.2-3.79,3.2h-2.283V204.9h-2.241Zm2.241,4.537h2.227c1.148,0,1.6-.567,1.6-1.342s-.457-1.342-1.6-1.342h-2.227Z" transform="translate(-30.358 -38.58)" fill="#b389ff"/>
    <path id="Path_1957" data-name="Path 1957" d="M164.545,195.216h2.241v3.708h3.736v-3.708h2.241V204.9h-2.241V201h-3.736v3.9h-2.241Z" transform="translate(-32.519 -38.58)" fill="#b389ff"/>
  </g>
</svg>
